<mxfile host="app.diagrams.net" agent="Mozilla/5.0 (Windows NT 10.0; Win64; x64) AppleWebKit/537.36 (KHTML, like Gecko) Chrome/136.0.0.0 Safari/537.36 Edg/136.0.0.0" version="27.0.6">
  <diagram name="Страница — 1" id="LnE6gOMiBnVanjhRX-0q">
    <mxGraphModel dx="3811" dy="2831" grid="0" gridSize="10" guides="1" tooltips="1" connect="1" arrows="1" fold="1" page="0" pageScale="1" pageWidth="827" pageHeight="1169" math="0" shadow="0">
      <root>
        <mxCell id="0" />
        <mxCell id="1" parent="0" />
        <mxCell id="4EiAaAuF7udfYV3nGv_q-1" value="" style="rounded=0;whiteSpace=wrap;html=1;" vertex="1" parent="1">
          <mxGeometry x="-366" y="-1427" width="220" height="510" as="geometry" />
        </mxCell>
        <mxCell id="4EiAaAuF7udfYV3nGv_q-15" value="" style="endArrow=none;html=1;rounded=0;exitX=1;exitY=1;exitDx=0;exitDy=0;entryX=0;entryY=0.25;entryDx=0;entryDy=0;" edge="1" parent="1" source="4EiAaAuF7udfYV3nGv_q-19">
          <mxGeometry width="50" height="50" relative="1" as="geometry">
            <mxPoint x="-216" y="-1387" as="sourcePoint" />
            <mxPoint x="-366" y="-1387" as="targetPoint" />
          </mxGeometry>
        </mxCell>
        <mxCell id="4EiAaAuF7udfYV3nGv_q-19" value="Пользователи" style="text;strokeColor=none;fillColor=none;fontSize=12;fontStyle=1;verticalAlign=middle;align=center;perimeterSpacing=0;" vertex="1" parent="1">
          <mxGeometry x="-366" y="-1427" width="220" height="40" as="geometry" />
        </mxCell>
        <mxCell id="4EiAaAuF7udfYV3nGv_q-69" value="&lt;ul style=&quot;margin: 13.716px 0px; padding-left: 27.432px; color: rgb(64, 64, 64); font-weight: 400; text-align: start; text-wrap-mode: wrap;&quot;&gt;&lt;li style=&quot;&quot;&gt;&lt;p style=&quot;margin-top: 0px; margin-right: 0px; margin-left: 0px; line-height: 28.575px; margin-bottom: 0px !important;&quot; class=&quot;ds-markdown-paragraph&quot;&gt;&lt;span&gt;&lt;font style=&quot;font-size: 20px;&quot; face=&quot;Times New Roman&quot;&gt;user_id (PK)&lt;/font&gt;&lt;/span&gt;&lt;/p&gt;&lt;/li&gt;&lt;li style=&quot;&quot;&gt;&lt;p style=&quot;margin-top: 0px; margin-right: 0px; margin-left: 0px; line-height: 28.575px; margin-bottom: 0px !important;&quot; class=&quot;ds-markdown-paragraph&quot;&gt;&lt;span style=&quot;font-size: 20px; font-family: &amp;quot;Times New Roman&amp;quot;; color: light-dark(rgb(64, 64, 64), rgb(182, 182, 182)); background-color: transparent;&quot;&gt;role_id (FK)&lt;/span&gt;&lt;/p&gt;&lt;/li&gt;&lt;li style=&quot;margin-top: 4px;&quot;&gt;&lt;p style=&quot;margin-top: 0px; margin-right: 0px; margin-left: 0px; line-height: 28.575px; margin-bottom: 0px !important;&quot; class=&quot;ds-markdown-paragraph&quot;&gt;&lt;span&gt;&lt;font style=&quot;font-size: 20px;&quot; face=&quot;Times New Roman&quot;&gt;login&lt;/font&gt;&lt;/span&gt;&lt;/p&gt;&lt;/li&gt;&lt;li style=&quot;margin-top: 4px;&quot;&gt;&lt;p style=&quot;margin-top: 0px; margin-right: 0px; margin-left: 0px; line-height: 28.575px; margin-bottom: 0px !important;&quot; class=&quot;ds-markdown-paragraph&quot;&gt;&lt;span&gt;&lt;font style=&quot;font-size: 20px;&quot; face=&quot;Times New Roman&quot;&gt;password_hash&lt;/font&gt;&lt;/span&gt;&lt;/p&gt;&lt;/li&gt;&lt;li style=&quot;margin-top: 4px;&quot;&gt;&lt;p style=&quot;margin-top: 0px; margin-right: 0px; margin-left: 0px; line-height: 28.575px; margin-bottom: 0px !important;&quot; class=&quot;ds-markdown-paragraph&quot;&gt;&lt;span style=&quot;background-color: transparent; color: light-dark(rgb(64, 64, 64), rgb(182, 182, 182)); font-family: &amp;quot;Times New Roman&amp;quot;; font-size: 20px;&quot;&gt;first_name&lt;/span&gt;&lt;/p&gt;&lt;/li&gt;&lt;li style=&quot;margin-top: 4px;&quot;&gt;&lt;p style=&quot;margin-top: 0px; margin-right: 0px; margin-left: 0px; line-height: 28.575px; margin-bottom: 0px !important;&quot; class=&quot;ds-markdown-paragraph&quot;&gt;&lt;span&gt;&lt;font style=&quot;font-size: 20px;&quot; face=&quot;Times New Roman&quot;&gt;last_name&lt;/font&gt;&lt;/span&gt;&lt;/p&gt;&lt;/li&gt;&lt;li style=&quot;margin-top: 4px;&quot;&gt;&lt;p style=&quot;margin-top: 0px; margin-right: 0px; margin-left: 0px; line-height: 28.575px; margin-bottom: 0px !important;&quot; class=&quot;ds-markdown-paragraph&quot;&gt;&lt;span&gt;&lt;font style=&quot;font-size: 20px;&quot; face=&quot;Times New Roman&quot;&gt;middle_name&lt;/font&gt;&lt;/span&gt;&lt;/p&gt;&lt;/li&gt;&lt;li style=&quot;margin-top: 4px;&quot;&gt;&lt;p style=&quot;margin-top: 0px; margin-right: 0px; margin-left: 0px; line-height: 28.575px; margin-bottom: 0px !important;&quot; class=&quot;ds-markdown-paragraph&quot;&gt;&lt;span&gt;&lt;font style=&quot;font-size: 20px;&quot; face=&quot;Times New Roman&quot;&gt;phone&lt;/font&gt;&lt;/span&gt;&lt;/p&gt;&lt;/li&gt;&lt;li style=&quot;margin-top: 4px;&quot;&gt;&lt;p style=&quot;margin-top: 0px; margin-right: 0px; margin-left: 0px; line-height: 28.575px; margin-bottom: 0px !important;&quot; class=&quot;ds-markdown-paragraph&quot;&gt;&lt;span&gt;&lt;font style=&quot;font-size: 20px;&quot; face=&quot;Times New Roman&quot;&gt;email&lt;/font&gt;&lt;/span&gt;&lt;/p&gt;&lt;/li&gt;&lt;li style=&quot;margin-top: 4px;&quot;&gt;&lt;p style=&quot;margin-top: 0px; margin-right: 0px; margin-left: 0px; line-height: 28.575px; margin-bottom: 0px !important;&quot; class=&quot;ds-markdown-paragraph&quot;&gt;&lt;span&gt;&lt;font style=&quot;font-size: 20px;&quot; face=&quot;Times New Roman&quot;&gt;registration_date&lt;/font&gt;&lt;/span&gt;&lt;/p&gt;&lt;/li&gt;&lt;li style=&quot;margin-top: 4px;&quot;&gt;&lt;p style=&quot;margin-top: 0px; margin-right: 0px; margin-left: 0px; line-height: 28.575px; margin-bottom: 0px !important;&quot;&gt;&lt;span&gt;&lt;font style=&quot;font-size: 20px;&quot; face=&quot;Times New Roman&quot;&gt;is_active&lt;/font&gt;&lt;/span&gt;&lt;/p&gt;&lt;/li&gt;&lt;/ul&gt;" style="text;strokeColor=none;fillColor=none;html=1;fontSize=24;fontStyle=1;verticalAlign=top;align=center;" vertex="1" parent="1">
          <mxGeometry x="-366" y="-1387" width="220" height="470" as="geometry" />
        </mxCell>
        <mxCell id="4EiAaAuF7udfYV3nGv_q-71" value="" style="rounded=0;whiteSpace=wrap;html=1;" vertex="1" parent="1">
          <mxGeometry x="-76" y="-1427" width="220" height="510" as="geometry" />
        </mxCell>
        <mxCell id="4EiAaAuF7udfYV3nGv_q-72" value="" style="endArrow=none;html=1;rounded=0;exitX=1;exitY=1;exitDx=0;exitDy=0;entryX=0;entryY=0.25;entryDx=0;entryDy=0;" edge="1" parent="1" source="4EiAaAuF7udfYV3nGv_q-73">
          <mxGeometry width="50" height="50" relative="1" as="geometry">
            <mxPoint x="74" y="-1387" as="sourcePoint" />
            <mxPoint x="-76" y="-1387" as="targetPoint" />
          </mxGeometry>
        </mxCell>
        <mxCell id="4EiAaAuF7udfYV3nGv_q-73" value="Роли" style="text;strokeColor=none;fillColor=none;fontSize=12;fontStyle=1;verticalAlign=middle;align=center;perimeterSpacing=0;" vertex="1" parent="1">
          <mxGeometry x="-76" y="-1427" width="220" height="40" as="geometry" />
        </mxCell>
        <mxCell id="4EiAaAuF7udfYV3nGv_q-74" value="&lt;div style=&quot;text-align: left;&quot;&gt;&lt;ul style=&quot;margin: 13.716px 0px; padding-left: 27.432px; color: rgb(64, 64, 64); font-weight: 400; text-wrap-mode: wrap; background-color: rgb(255, 255, 255);&quot;&gt;&lt;li style=&quot;&quot;&gt;&lt;p style=&quot;margin-top: 0px; margin-right: 0px; margin-left: 0px; line-height: 28.575px; margin-bottom: 0px !important;&quot; class=&quot;ds-markdown-paragraph&quot;&gt;&lt;font style=&quot;font-size: 20px;&quot; face=&quot;Times New Roman&quot;&gt;role_id (PK)&lt;/font&gt;&lt;/p&gt;&lt;/li&gt;&lt;li style=&quot;margin-top: 4px;&quot;&gt;&lt;p style=&quot;margin-top: 0px; margin-right: 0px; margin-left: 0px; line-height: 28.575px; margin-bottom: 0px !important;&quot; class=&quot;ds-markdown-paragraph&quot;&gt;&lt;font style=&quot;font-size: 20px;&quot; face=&quot;Times New Roman&quot;&gt;role_name (администратор, менеджер, инженер, руководитель участка, сотрудник и т.д.)&lt;/font&gt;&lt;/p&gt;&lt;/li&gt;&lt;li style=&quot;margin-top: 4px;&quot;&gt;&lt;p style=&quot;margin-top: 0px; margin-right: 0px; margin-left: 0px; line-height: 28.575px; margin-bottom: 0px !important;&quot; class=&quot;ds-markdown-paragraph&quot;&gt;&lt;font style=&quot;font-size: 20px;&quot; face=&quot;Times New Roman&quot;&gt;description&lt;/font&gt;&lt;/p&gt;&lt;/li&gt;&lt;li style=&quot;margin-top: 4px;&quot;&gt;&lt;p style=&quot;margin-top: 0px; margin-right: 0px; margin-left: 0px; line-height: 28.575px; margin-bottom: 0px !important;&quot; class=&quot;ds-markdown-paragraph&quot;&gt;&lt;font style=&quot;font-size: 20px;&quot; face=&quot;Times New Roman&quot;&gt;permissions&lt;/font&gt;&lt;/p&gt;&lt;/li&gt;&lt;/ul&gt;&lt;/div&gt;" style="text;strokeColor=none;fillColor=none;html=1;fontSize=24;fontStyle=1;verticalAlign=top;align=center;" vertex="1" parent="1">
          <mxGeometry x="-76" y="-1387" width="220" height="470" as="geometry" />
        </mxCell>
        <mxCell id="4EiAaAuF7udfYV3nGv_q-75" value="" style="rounded=0;whiteSpace=wrap;html=1;" vertex="1" parent="1">
          <mxGeometry x="-664" y="-1427" width="220" height="510" as="geometry" />
        </mxCell>
        <mxCell id="4EiAaAuF7udfYV3nGv_q-76" value="" style="endArrow=none;html=1;rounded=0;exitX=1;exitY=1;exitDx=0;exitDy=0;entryX=0;entryY=0.25;entryDx=0;entryDy=0;" edge="1" parent="1" source="4EiAaAuF7udfYV3nGv_q-77">
          <mxGeometry width="50" height="50" relative="1" as="geometry">
            <mxPoint x="-514" y="-1387" as="sourcePoint" />
            <mxPoint x="-664" y="-1387" as="targetPoint" />
          </mxGeometry>
        </mxCell>
        <mxCell id="4EiAaAuF7udfYV3nGv_q-77" value="Сотрудники" style="text;strokeColor=none;fillColor=none;fontSize=12;fontStyle=1;verticalAlign=middle;align=center;perimeterSpacing=0;" vertex="1" parent="1">
          <mxGeometry x="-664" y="-1427" width="220" height="40" as="geometry" />
        </mxCell>
        <mxCell id="4EiAaAuF7udfYV3nGv_q-78" value="&lt;div style=&quot;text-align: left;&quot;&gt;&lt;ul style=&quot;margin: 13.716px 0px; padding-left: 27.432px; color: rgb(64, 64, 64); font-weight: 400; text-wrap-mode: wrap; background-color: rgb(255, 255, 255);&quot;&gt;&lt;li style=&quot;&quot;&gt;&lt;p style=&quot;margin-top: 0px; margin-right: 0px; margin-left: 0px; line-height: 28.575px; margin-bottom: 0px !important;&quot; class=&quot;ds-markdown-paragraph&quot;&gt;&lt;font face=&quot;Times New Roman&quot; style=&quot;font-size: 20px;&quot;&gt;employee_id (PK)&lt;/font&gt;&lt;/p&gt;&lt;/li&gt;&lt;li style=&quot;margin-top: 4px;&quot;&gt;&lt;p style=&quot;margin-top: 0px; margin-right: 0px; margin-left: 0px; line-height: 28.575px; margin-bottom: 0px !important;&quot; class=&quot;ds-markdown-paragraph&quot;&gt;&lt;font face=&quot;Times New Roman&quot; style=&quot;font-size: 20px;&quot;&gt;user_id (FK)&lt;/font&gt;&lt;/p&gt;&lt;/li&gt;&lt;li style=&quot;margin-top: 4px;&quot;&gt;&lt;p style=&quot;margin-top: 0px; margin-right: 0px; margin-left: 0px; line-height: 28.575px; margin-bottom: 0px !important;&quot; class=&quot;ds-markdown-paragraph&quot;&gt;&lt;font face=&quot;Times New Roman&quot; style=&quot;font-size: 20px;&quot;&gt;position&lt;/font&gt;&lt;/p&gt;&lt;/li&gt;&lt;li style=&quot;margin-top: 4px;&quot;&gt;&lt;p style=&quot;margin-top: 0px; margin-right: 0px; margin-left: 0px; line-height: 28.575px; margin-bottom: 0px !important;&quot; class=&quot;ds-markdown-paragraph&quot;&gt;&lt;font face=&quot;Times New Roman&quot; style=&quot;font-size: 20px;&quot;&gt;department&lt;/font&gt;&lt;/p&gt;&lt;/li&gt;&lt;li style=&quot;margin-top: 4px;&quot;&gt;&lt;p style=&quot;margin-top: 0px; margin-right: 0px; margin-left: 0px; line-height: 28.575px; margin-bottom: 0px !important;&quot; class=&quot;ds-markdown-paragraph&quot;&gt;&lt;font face=&quot;Times New Roman&quot; style=&quot;font-size: 20px;&quot;&gt;hire_date&lt;/font&gt;&lt;/p&gt;&lt;/li&gt;&lt;li style=&quot;margin-top: 4px;&quot;&gt;&lt;p style=&quot;margin-top: 0px; margin-right: 0px; margin-left: 0px; line-height: 28.575px; margin-bottom: 0px !important;&quot; class=&quot;ds-markdown-paragraph&quot;&gt;&lt;font face=&quot;Times New Roman&quot; style=&quot;font-size: 20px;&quot;&gt;salary&lt;/font&gt;&lt;/p&gt;&lt;/li&gt;&lt;li style=&quot;margin-top: 4px;&quot;&gt;&lt;p style=&quot;margin-top: 0px; margin-right: 0px; margin-left: 0px; line-height: 28.575px; margin-bottom: 0px !important;&quot; class=&quot;ds-markdown-paragraph&quot;&gt;&lt;font face=&quot;Times New Roman&quot; style=&quot;font-size: 20px;&quot;&gt;qualification&lt;/font&gt;&lt;/p&gt;&lt;/li&gt;&lt;li style=&quot;margin-top: 4px;&quot;&gt;&lt;p style=&quot;margin-top: 0px; margin-right: 0px; margin-left: 0px; line-height: 28.575px; margin-bottom: 0px !important;&quot; class=&quot;ds-markdown-paragraph&quot;&gt;&lt;font face=&quot;Times New Roman&quot; style=&quot;font-size: 20px;&quot;&gt;additional_info&lt;/font&gt;&lt;/p&gt;&lt;/li&gt;&lt;/ul&gt;&lt;/div&gt;" style="text;strokeColor=none;fillColor=none;html=1;fontSize=24;fontStyle=1;verticalAlign=top;align=center;" vertex="1" parent="1">
          <mxGeometry x="-664" y="-1387" width="220" height="470" as="geometry" />
        </mxCell>
        <mxCell id="4EiAaAuF7udfYV3nGv_q-87" value="" style="rounded=0;whiteSpace=wrap;html=1;" vertex="1" parent="1">
          <mxGeometry x="-1248" y="-1426" width="220" height="646" as="geometry" />
        </mxCell>
        <mxCell id="4EiAaAuF7udfYV3nGv_q-88" value="" style="endArrow=none;html=1;rounded=0;exitX=1;exitY=1;exitDx=0;exitDy=0;entryX=0;entryY=0.25;entryDx=0;entryDy=0;" edge="1" parent="1" source="4EiAaAuF7udfYV3nGv_q-89">
          <mxGeometry width="50" height="50" relative="1" as="geometry">
            <mxPoint x="-1098" y="-1386" as="sourcePoint" />
            <mxPoint x="-1248" y="-1386" as="targetPoint" />
          </mxGeometry>
        </mxCell>
        <mxCell id="4EiAaAuF7udfYV3nGv_q-89" value="Объекты строительства" style="text;strokeColor=none;fillColor=none;fontSize=12;fontStyle=1;verticalAlign=middle;align=center;perimeterSpacing=0;" vertex="1" parent="1">
          <mxGeometry x="-1248" y="-1426" width="220" height="40" as="geometry" />
        </mxCell>
        <mxCell id="4EiAaAuF7udfYV3nGv_q-90" value="&lt;div style=&quot;text-align: left;&quot;&gt;&lt;ul style=&quot;margin: 13.716px 0px; padding-left: 27.432px; color: rgb(64, 64, 64); font-weight: 400; text-wrap-mode: wrap;&quot;&gt;&lt;li style=&quot;&quot;&gt;&lt;p style=&quot;margin-top: 0px; margin-right: 0px; margin-left: 0px; line-height: 28.575px; margin-bottom: 0px !important;&quot; class=&quot;ds-markdown-paragraph&quot;&gt;&lt;font face=&quot;Times New Roman&quot; style=&quot;font-size: 20px; background-color: light-dark(#ffffff, var(--ge-dark-color, #121212));&quot;&gt;object_id (PK)&lt;/font&gt;&lt;/p&gt;&lt;/li&gt;&lt;li style=&quot;margin-top: 4px;&quot;&gt;&lt;p style=&quot;margin-top: 0px; margin-right: 0px; margin-left: 0px; line-height: 28.575px; margin-bottom: 0px !important;&quot; class=&quot;ds-markdown-paragraph&quot;&gt;&lt;font face=&quot;Times New Roman&quot; style=&quot;font-size: 20px; background-color: light-dark(#ffffff, var(--ge-dark-color, #121212));&quot;&gt;object_name&lt;/font&gt;&lt;/p&gt;&lt;/li&gt;&lt;li style=&quot;margin-top: 4px;&quot;&gt;&lt;p style=&quot;margin-top: 0px; margin-right: 0px; margin-left: 0px; line-height: 28.575px; margin-bottom: 0px !important;&quot; class=&quot;ds-markdown-paragraph&quot;&gt;&lt;font face=&quot;Times New Roman&quot; style=&quot;font-size: 20px; background-color: light-dark(#ffffff, var(--ge-dark-color, #121212));&quot;&gt;object_type (жилой дом, коммерческое здание, инфраструктурный объект)&lt;/font&gt;&lt;/p&gt;&lt;/li&gt;&lt;li style=&quot;margin-top: 4px;&quot;&gt;&lt;p style=&quot;margin-top: 0px; margin-right: 0px; margin-left: 0px; line-height: 28.575px; margin-bottom: 0px !important;&quot; class=&quot;ds-markdown-paragraph&quot;&gt;&lt;font face=&quot;Times New Roman&quot; style=&quot;font-size: 20px; background-color: light-dark(#ffffff, var(--ge-dark-color, #121212));&quot;&gt;address&lt;/font&gt;&lt;/p&gt;&lt;/li&gt;&lt;li style=&quot;margin-top: 4px;&quot;&gt;&lt;p style=&quot;margin-top: 0px; margin-right: 0px; margin-left: 0px; line-height: 28.575px; margin-bottom: 0px !important;&quot; class=&quot;ds-markdown-paragraph&quot;&gt;&lt;font face=&quot;Times New Roman&quot; style=&quot;font-size: 20px; background-color: light-dark(#ffffff, var(--ge-dark-color, #121212));&quot;&gt;start_date&lt;/font&gt;&lt;/p&gt;&lt;/li&gt;&lt;li style=&quot;margin-top: 4px;&quot;&gt;&lt;p style=&quot;margin-top: 0px; margin-right: 0px; margin-left: 0px; line-height: 28.575px; margin-bottom: 0px !important;&quot; class=&quot;ds-markdown-paragraph&quot;&gt;&lt;font face=&quot;Times New Roman&quot; style=&quot;font-size: 20px; background-color: light-dark(#ffffff, var(--ge-dark-color, #121212));&quot;&gt;planned_end_date&lt;/font&gt;&lt;/p&gt;&lt;/li&gt;&lt;li style=&quot;margin-top: 4px;&quot;&gt;&lt;p style=&quot;margin-top: 0px; margin-right: 0px; margin-left: 0px; line-height: 28.575px; margin-bottom: 0px !important;&quot; class=&quot;ds-markdown-paragraph&quot;&gt;&lt;font face=&quot;Times New Roman&quot; style=&quot;font-size: 20px; background-color: light-dark(#ffffff, var(--ge-dark-color, #121212));&quot;&gt;actual_end_date&lt;/font&gt;&lt;/p&gt;&lt;/li&gt;&lt;li style=&quot;margin-top: 4px;&quot;&gt;&lt;p style=&quot;margin-top: 0px; margin-right: 0px; margin-left: 0px; line-height: 28.575px; margin-bottom: 0px !important;&quot; class=&quot;ds-markdown-paragraph&quot;&gt;&lt;font face=&quot;Times New Roman&quot; style=&quot;font-size: 20px; background-color: light-dark(#ffffff, var(--ge-dark-color, #121212));&quot;&gt;status (планирование, в работе, завершен)&lt;/font&gt;&lt;/p&gt;&lt;/li&gt;&lt;li style=&quot;margin-top: 4px;&quot;&gt;&lt;p style=&quot;margin-top: 0px; margin-right: 0px; margin-left: 0px; line-height: 28.575px; margin-bottom: 0px !important;&quot; class=&quot;ds-markdown-paragraph&quot;&gt;&lt;font face=&quot;Times New Roman&quot; style=&quot;font-size: 20px; background-color: light-dark(#ffffff, var(--ge-dark-color, #121212));&quot;&gt;manager_id (FK)&lt;/font&gt;&lt;/p&gt;&lt;/li&gt;&lt;li style=&quot;margin-top: 4px;&quot;&gt;&lt;p style=&quot;margin-top: 0px; margin-right: 0px; margin-left: 0px; line-height: 28.575px; margin-bottom: 0px !important;&quot; class=&quot;ds-markdown-paragraph&quot;&gt;&lt;font face=&quot;Times New Roman&quot; style=&quot;font-size: 20px; background-color: light-dark(#ffffff, var(--ge-dark-color, #121212));&quot;&gt;client_id (FK)&lt;/font&gt;&lt;/p&gt;&lt;/li&gt;&lt;li style=&quot;margin-top: 4px;&quot;&gt;&lt;p style=&quot;margin-top: 0px; margin-right: 0px; margin-left: 0px; line-height: 28.575px; margin-bottom: 0px !important;&quot; class=&quot;ds-markdown-paragraph&quot;&gt;&lt;font face=&quot;Times New Roman&quot; style=&quot;font-size: 20px; background-color: light-dark(#ffffff, var(--ge-dark-color, #121212));&quot;&gt;budget&lt;/font&gt;&lt;/p&gt;&lt;/li&gt;&lt;li style=&quot;margin-top: 4px;&quot;&gt;&lt;p style=&quot;margin-top: 0px; margin-right: 0px; margin-left: 0px; line-height: 28.575px; margin-bottom: 0px !important;&quot; class=&quot;ds-markdown-paragraph&quot;&gt;&lt;font face=&quot;Times New Roman&quot; style=&quot;font-size: 20px; background-color: light-dark(#ffffff, var(--ge-dark-color, #121212));&quot;&gt;description&lt;/font&gt;&lt;/p&gt;&lt;/li&gt;&lt;/ul&gt;&lt;/div&gt;" style="text;strokeColor=none;fillColor=none;html=1;fontSize=24;fontStyle=1;verticalAlign=top;align=center;" vertex="1" parent="1">
          <mxGeometry x="-1247.5" y="-1386" width="219.5" height="607" as="geometry" />
        </mxCell>
        <mxCell id="4EiAaAuF7udfYV3nGv_q-91" value="" style="rounded=0;whiteSpace=wrap;html=1;" vertex="1" parent="1">
          <mxGeometry x="-1248" y="-693" width="220" height="510" as="geometry" />
        </mxCell>
        <mxCell id="4EiAaAuF7udfYV3nGv_q-92" value="" style="endArrow=none;html=1;rounded=0;exitX=1;exitY=1;exitDx=0;exitDy=0;entryX=0;entryY=0.25;entryDx=0;entryDy=0;" edge="1" parent="1" source="4EiAaAuF7udfYV3nGv_q-93">
          <mxGeometry width="50" height="50" relative="1" as="geometry">
            <mxPoint x="-1098" y="-653" as="sourcePoint" />
            <mxPoint x="-1248" y="-653" as="targetPoint" />
          </mxGeometry>
        </mxCell>
        <mxCell id="4EiAaAuF7udfYV3nGv_q-93" value="Графики работ" style="text;strokeColor=none;fillColor=none;fontSize=12;fontStyle=1;verticalAlign=middle;align=center;perimeterSpacing=0;" vertex="1" parent="1">
          <mxGeometry x="-1248" y="-693" width="220" height="40" as="geometry" />
        </mxCell>
        <mxCell id="4EiAaAuF7udfYV3nGv_q-94" value="&lt;div style=&quot;text-align: left;&quot;&gt;&lt;ul style=&quot;margin: 13.716px 0px; padding-left: 27.432px; color: rgb(64, 64, 64); font-weight: 400; text-wrap-mode: wrap; background-color: rgb(255, 255, 255);&quot;&gt;&lt;li style=&quot;&quot;&gt;&lt;p style=&quot;margin-top: 0px; margin-right: 0px; margin-left: 0px; line-height: 28.575px; margin-bottom: 0px !important;&quot; class=&quot;ds-markdown-paragraph&quot;&gt;&lt;font style=&quot;font-size: 20px;&quot; face=&quot;Times New Roman&quot;&gt;schedule_id (PK)&lt;/font&gt;&lt;/p&gt;&lt;/li&gt;&lt;li style=&quot;margin-top: 4px;&quot;&gt;&lt;p style=&quot;margin-top: 0px; margin-right: 0px; margin-left: 0px; line-height: 28.575px; margin-bottom: 0px !important;&quot; class=&quot;ds-markdown-paragraph&quot;&gt;&lt;font style=&quot;font-size: 20px;&quot; face=&quot;Times New Roman&quot;&gt;object_id (FK)&lt;/font&gt;&lt;/p&gt;&lt;/li&gt;&lt;li style=&quot;margin-top: 4px;&quot;&gt;&lt;p style=&quot;margin-top: 0px; margin-right: 0px; margin-left: 0px; line-height: 28.575px; margin-bottom: 0px !important;&quot; class=&quot;ds-markdown-paragraph&quot;&gt;&lt;font style=&quot;font-size: 20px;&quot; face=&quot;Times New Roman&quot;&gt;schedule_name&lt;/font&gt;&lt;/p&gt;&lt;/li&gt;&lt;li style=&quot;margin-top: 4px;&quot;&gt;&lt;p style=&quot;margin-top: 0px; margin-right: 0px; margin-left: 0px; line-height: 28.575px; margin-bottom: 0px !important;&quot; class=&quot;ds-markdown-paragraph&quot;&gt;&lt;font style=&quot;font-size: 20px;&quot; face=&quot;Times New Roman&quot;&gt;start_date&lt;/font&gt;&lt;/p&gt;&lt;/li&gt;&lt;li style=&quot;margin-top: 4px;&quot;&gt;&lt;p style=&quot;margin-top: 0px; margin-right: 0px; margin-left: 0px; line-height: 28.575px; margin-bottom: 0px !important;&quot; class=&quot;ds-markdown-paragraph&quot;&gt;&lt;font style=&quot;font-size: 20px;&quot; face=&quot;Times New Roman&quot;&gt;end_date&lt;/font&gt;&lt;/p&gt;&lt;/li&gt;&lt;li style=&quot;margin-top: 4px;&quot;&gt;&lt;p style=&quot;margin-top: 0px; margin-right: 0px; margin-left: 0px; line-height: 28.575px; margin-bottom: 0px !important;&quot; class=&quot;ds-markdown-paragraph&quot;&gt;&lt;font style=&quot;font-size: 20px;&quot; face=&quot;Times New Roman&quot;&gt;status&lt;/font&gt;&lt;/p&gt;&lt;/li&gt;&lt;li style=&quot;margin-top: 4px;&quot;&gt;&lt;p style=&quot;margin-top: 0px; margin-right: 0px; margin-left: 0px; line-height: 28.575px; margin-bottom: 0px !important;&quot; class=&quot;ds-markdown-paragraph&quot;&gt;&lt;font style=&quot;font-size: 20px;&quot; face=&quot;Times New Roman&quot;&gt;created_by (FK)&lt;/font&gt;&lt;/p&gt;&lt;/li&gt;&lt;li style=&quot;margin-top: 4px;&quot;&gt;&lt;p style=&quot;margin-top: 0px; margin-right: 0px; margin-left: 0px; line-height: 28.575px; margin-bottom: 0px !important;&quot; class=&quot;ds-markdown-paragraph&quot;&gt;&lt;font style=&quot;font-size: 20px;&quot; face=&quot;Times New Roman&quot;&gt;creation_date&lt;/font&gt;&lt;/p&gt;&lt;/li&gt;&lt;li style=&quot;margin-top: 4px;&quot;&gt;&lt;p style=&quot;margin-top: 0px; margin-right: 0px; margin-left: 0px; line-height: 28.575px; margin-bottom: 0px !important;&quot; class=&quot;ds-markdown-paragraph&quot;&gt;&lt;font style=&quot;font-size: 20px;&quot; face=&quot;Times New Roman&quot;&gt;last_update_date&lt;/font&gt;&lt;/p&gt;&lt;/li&gt;&lt;li style=&quot;margin-top: 4px;&quot;&gt;&lt;p style=&quot;margin-top: 0px; margin-right: 0px; margin-left: 0px; line-height: 28.575px; margin-bottom: 0px !important;&quot; class=&quot;ds-markdown-paragraph&quot;&gt;&lt;font style=&quot;font-size: 20px;&quot; face=&quot;Times New Roman&quot;&gt;description&lt;/font&gt;&lt;/p&gt;&lt;/li&gt;&lt;/ul&gt;&lt;/div&gt;" style="text;strokeColor=none;fillColor=none;html=1;fontSize=24;fontStyle=1;verticalAlign=top;align=center;" vertex="1" parent="1">
          <mxGeometry x="-1248" y="-653" width="220" height="470" as="geometry" />
        </mxCell>
        <mxCell id="4EiAaAuF7udfYV3nGv_q-95" value="" style="rounded=0;whiteSpace=wrap;html=1;" vertex="1" parent="1">
          <mxGeometry x="-967" y="-693" width="220" height="511" as="geometry" />
        </mxCell>
        <mxCell id="4EiAaAuF7udfYV3nGv_q-96" value="" style="endArrow=none;html=1;rounded=0;exitX=1;exitY=0;exitDx=0;exitDy=0;entryX=0;entryY=0;entryDx=0;entryDy=0;" edge="1" parent="1" source="4EiAaAuF7udfYV3nGv_q-98" target="4EiAaAuF7udfYV3nGv_q-98">
          <mxGeometry width="50" height="50" relative="1" as="geometry">
            <mxPoint x="-817" y="-729" as="sourcePoint" />
            <mxPoint x="-967" y="-729" as="targetPoint" />
          </mxGeometry>
        </mxCell>
        <mxCell id="4EiAaAuF7udfYV3nGv_q-97" value="Задачи" style="text;strokeColor=none;fillColor=none;fontSize=12;fontStyle=1;verticalAlign=middle;align=center;perimeterSpacing=0;" vertex="1" parent="1">
          <mxGeometry x="-967" y="-693" width="220" height="34" as="geometry" />
        </mxCell>
        <mxCell id="4EiAaAuF7udfYV3nGv_q-98" value="&lt;div style=&quot;text-align: left;&quot;&gt;&lt;ul style=&quot;margin: 13.716px 0px; padding-left: 27.432px; color: rgb(64, 64, 64); font-weight: 400; text-wrap-mode: wrap; background-color: rgb(255, 255, 255);&quot;&gt;&lt;li style=&quot;&quot;&gt;&lt;p style=&quot;margin-top: 0px; margin-right: 0px; margin-left: 0px; line-height: 28.575px; margin-bottom: 0px !important;&quot; class=&quot;ds-markdown-paragraph&quot;&gt;&lt;font style=&quot;font-size: 20px;&quot; face=&quot;Times New Roman&quot;&gt;task_id (PK)&lt;/font&gt;&lt;/p&gt;&lt;/li&gt;&lt;li style=&quot;margin-top: 4px;&quot;&gt;&lt;p style=&quot;margin-top: 0px; margin-right: 0px; margin-left: 0px; line-height: 28.575px; margin-bottom: 0px !important;&quot; class=&quot;ds-markdown-paragraph&quot;&gt;&lt;font style=&quot;font-size: 20px;&quot; face=&quot;Times New Roman&quot;&gt;schedule_id (FK)&lt;/font&gt;&lt;/p&gt;&lt;/li&gt;&lt;li style=&quot;margin-top: 4px;&quot;&gt;&lt;p style=&quot;margin-top: 0px; margin-right: 0px; margin-left: 0px; line-height: 28.575px; margin-bottom: 0px !important;&quot; class=&quot;ds-markdown-paragraph&quot;&gt;&lt;font style=&quot;font-size: 20px;&quot; face=&quot;Times New Roman&quot;&gt;task_name&lt;/font&gt;&lt;/p&gt;&lt;/li&gt;&lt;li style=&quot;margin-top: 4px;&quot;&gt;&lt;p style=&quot;margin-top: 0px; margin-right: 0px; margin-left: 0px; line-height: 28.575px; margin-bottom: 0px !important;&quot; class=&quot;ds-markdown-paragraph&quot;&gt;&lt;font style=&quot;font-size: 20px;&quot; face=&quot;Times New Roman&quot;&gt;description&lt;/font&gt;&lt;/p&gt;&lt;/li&gt;&lt;li style=&quot;margin-top: 4px;&quot;&gt;&lt;p style=&quot;margin-top: 0px; margin-right: 0px; margin-left: 0px; line-height: 28.575px; margin-bottom: 0px !important;&quot; class=&quot;ds-markdown-paragraph&quot;&gt;&lt;font style=&quot;font-size: 20px;&quot; face=&quot;Times New Roman&quot;&gt;start_date&lt;/font&gt;&lt;/p&gt;&lt;/li&gt;&lt;li style=&quot;margin-top: 4px;&quot;&gt;&lt;p style=&quot;margin-top: 0px; margin-right: 0px; margin-left: 0px; line-height: 28.575px; margin-bottom: 0px !important;&quot; class=&quot;ds-markdown-paragraph&quot;&gt;&lt;font style=&quot;font-size: 20px;&quot; face=&quot;Times New Roman&quot;&gt;end_date&lt;/font&gt;&lt;/p&gt;&lt;/li&gt;&lt;li style=&quot;margin-top: 4px;&quot;&gt;&lt;p style=&quot;margin-top: 0px; margin-right: 0px; margin-left: 0px; line-height: 28.575px; margin-bottom: 0px !important;&quot; class=&quot;ds-markdown-paragraph&quot;&gt;&lt;font style=&quot;font-size: 20px;&quot; face=&quot;Times New Roman&quot;&gt;status&lt;/font&gt;&lt;/p&gt;&lt;/li&gt;&lt;li style=&quot;margin-top: 4px;&quot;&gt;&lt;p style=&quot;margin-top: 0px; margin-right: 0px; margin-left: 0px; line-height: 28.575px; margin-bottom: 0px !important;&quot; class=&quot;ds-markdown-paragraph&quot;&gt;&lt;font style=&quot;font-size: 20px;&quot; face=&quot;Times New Roman&quot;&gt;assigned_to (FK)&lt;/font&gt;&lt;/p&gt;&lt;/li&gt;&lt;li style=&quot;margin-top: 4px;&quot;&gt;&lt;p style=&quot;margin-top: 0px; margin-right: 0px; margin-left: 0px; line-height: 28.575px; margin-bottom: 0px !important;&quot; class=&quot;ds-markdown-paragraph&quot;&gt;&lt;font style=&quot;font-size: 20px;&quot; face=&quot;Times New Roman&quot;&gt;priority&lt;/font&gt;&lt;/p&gt;&lt;/li&gt;&lt;li style=&quot;margin-top: 4px;&quot;&gt;&lt;p style=&quot;margin-top: 0px; margin-right: 0px; margin-left: 0px; line-height: 28.575px; margin-bottom: 0px !important;&quot; class=&quot;ds-markdown-paragraph&quot;&gt;&lt;font style=&quot;font-size: 20px;&quot; face=&quot;Times New Roman&quot;&gt;progress&lt;/font&gt;&lt;/p&gt;&lt;/li&gt;&lt;li style=&quot;margin-top: 4px;&quot;&gt;&lt;p style=&quot;margin-top: 0px; margin-right: 0px; margin-left: 0px; line-height: 28.575px; margin-bottom: 0px !important;&quot; class=&quot;ds-markdown-paragraph&quot;&gt;&lt;font style=&quot;font-size: 20px;&quot; face=&quot;Times New Roman&quot;&gt;dependencies&lt;/font&gt;&lt;/p&gt;&lt;/li&gt;&lt;/ul&gt;&lt;/div&gt;" style="text;strokeColor=none;fillColor=none;html=1;fontSize=24;fontStyle=1;verticalAlign=top;align=center;" vertex="1" parent="1">
          <mxGeometry x="-967" y="-655" width="220" height="473" as="geometry" />
        </mxCell>
        <mxCell id="4EiAaAuF7udfYV3nGv_q-103" value="" style="rounded=0;whiteSpace=wrap;html=1;" vertex="1" parent="1">
          <mxGeometry x="600" y="673" width="220" height="510" as="geometry" />
        </mxCell>
        <mxCell id="4EiAaAuF7udfYV3nGv_q-104" value="" style="endArrow=none;html=1;rounded=0;exitX=1;exitY=1;exitDx=0;exitDy=0;entryX=0;entryY=0.25;entryDx=0;entryDy=0;" edge="1" parent="1" source="4EiAaAuF7udfYV3nGv_q-105">
          <mxGeometry width="50" height="50" relative="1" as="geometry">
            <mxPoint x="750" y="713" as="sourcePoint" />
            <mxPoint x="600" y="713" as="targetPoint" />
          </mxGeometry>
        </mxCell>
        <mxCell id="4EiAaAuF7udfYV3nGv_q-105" value="Заказы на поставку" style="text;strokeColor=none;fillColor=none;fontSize=12;fontStyle=1;verticalAlign=middle;align=center;perimeterSpacing=0;" vertex="1" parent="1">
          <mxGeometry x="600" y="673" width="220" height="40" as="geometry" />
        </mxCell>
        <mxCell id="4EiAaAuF7udfYV3nGv_q-106" value="&lt;div style=&quot;text-align: left;&quot;&gt;&lt;ul style=&quot;margin: 13.716px 0px; padding-left: 27.432px; color: rgb(64, 64, 64); font-weight: 400; text-wrap-mode: wrap; background-color: rgb(255, 255, 255);&quot;&gt;&lt;li style=&quot;&quot;&gt;&lt;p style=&quot;margin-top: 0px; margin-right: 0px; margin-left: 0px; line-height: 28.575px; margin-bottom: 0px !important;&quot; class=&quot;ds-markdown-paragraph&quot;&gt;&lt;font face=&quot;Times New Roman&quot; style=&quot;font-size: 20px;&quot;&gt;order_id (PK)&lt;/font&gt;&lt;/p&gt;&lt;/li&gt;&lt;li style=&quot;margin-top: 4px;&quot;&gt;&lt;p style=&quot;margin-top: 0px; margin-right: 0px; margin-left: 0px; line-height: 28.575px; margin-bottom: 0px !important;&quot; class=&quot;ds-markdown-paragraph&quot;&gt;&lt;font face=&quot;Times New Roman&quot; style=&quot;font-size: 20px;&quot;&gt;supplier_id (FK)&lt;/font&gt;&lt;/p&gt;&lt;/li&gt;&lt;li style=&quot;margin-top: 4px;&quot;&gt;&lt;p style=&quot;margin-top: 0px; margin-right: 0px; margin-left: 0px; line-height: 28.575px; margin-bottom: 0px !important;&quot; class=&quot;ds-markdown-paragraph&quot;&gt;&lt;font face=&quot;Times New Roman&quot; style=&quot;font-size: 20px;&quot;&gt;order_date&lt;/font&gt;&lt;/p&gt;&lt;/li&gt;&lt;li style=&quot;margin-top: 4px;&quot;&gt;&lt;p style=&quot;margin-top: 0px; margin-right: 0px; margin-left: 0px; line-height: 28.575px; margin-bottom: 0px !important;&quot; class=&quot;ds-markdown-paragraph&quot;&gt;&lt;font face=&quot;Times New Roman&quot; style=&quot;font-size: 20px;&quot;&gt;expected_delivery_date&lt;/font&gt;&lt;/p&gt;&lt;/li&gt;&lt;li style=&quot;margin-top: 4px;&quot;&gt;&lt;p style=&quot;margin-top: 0px; margin-right: 0px; margin-left: 0px; line-height: 28.575px; margin-bottom: 0px !important;&quot; class=&quot;ds-markdown-paragraph&quot;&gt;&lt;font face=&quot;Times New Roman&quot; style=&quot;font-size: 20px;&quot;&gt;status&lt;/font&gt;&lt;/p&gt;&lt;/li&gt;&lt;li style=&quot;margin-top: 4px;&quot;&gt;&lt;p style=&quot;margin-top: 0px; margin-right: 0px; margin-left: 0px; line-height: 28.575px; margin-bottom: 0px !important;&quot; class=&quot;ds-markdown-paragraph&quot;&gt;&lt;font face=&quot;Times New Roman&quot; style=&quot;font-size: 20px;&quot;&gt;total_amount&lt;/font&gt;&lt;/p&gt;&lt;/li&gt;&lt;li style=&quot;margin-top: 4px;&quot;&gt;&lt;p style=&quot;margin-top: 0px; margin-right: 0px; margin-left: 0px; line-height: 28.575px; margin-bottom: 0px !important;&quot; class=&quot;ds-markdown-paragraph&quot;&gt;&lt;font face=&quot;Times New Roman&quot; style=&quot;font-size: 20px;&quot;&gt;approved_by (FK)&lt;/font&gt;&lt;/p&gt;&lt;/li&gt;&lt;li style=&quot;margin-top: 4px;&quot;&gt;&lt;p style=&quot;margin-top: 0px; margin-right: 0px; margin-left: 0px; line-height: 28.575px; margin-bottom: 0px !important;&quot; class=&quot;ds-markdown-paragraph&quot;&gt;&lt;font face=&quot;Times New Roman&quot; style=&quot;font-size: 20px;&quot;&gt;payment_terms&lt;/font&gt;&lt;/p&gt;&lt;/li&gt;&lt;li style=&quot;margin-top: 4px;&quot;&gt;&lt;p style=&quot;margin-top: 0px; margin-right: 0px; margin-left: 0px; line-height: 28.575px; margin-bottom: 0px !important;&quot; class=&quot;ds-markdown-paragraph&quot;&gt;&lt;font face=&quot;Times New Roman&quot; style=&quot;font-size: 20px;&quot;&gt;delivery_terms&lt;/font&gt;&lt;/p&gt;&lt;/li&gt;&lt;li style=&quot;margin-top: 4px;&quot;&gt;&lt;p style=&quot;margin-top: 0px; margin-right: 0px; margin-left: 0px; line-height: 28.575px; margin-bottom: 0px !important;&quot; class=&quot;ds-markdown-paragraph&quot;&gt;&lt;font face=&quot;Times New Roman&quot; style=&quot;font-size: 20px;&quot;&gt;notes&lt;/font&gt;&lt;/p&gt;&lt;/li&gt;&lt;/ul&gt;&lt;/div&gt;" style="text;strokeColor=none;fillColor=none;html=1;fontSize=24;fontStyle=1;verticalAlign=top;align=center;" vertex="1" parent="1">
          <mxGeometry x="600" y="713" width="220" height="470" as="geometry" />
        </mxCell>
        <mxCell id="4EiAaAuF7udfYV3nGv_q-107" value="" style="rounded=0;whiteSpace=wrap;html=1;" vertex="1" parent="1">
          <mxGeometry x="310" y="673" width="220" height="510" as="geometry" />
        </mxCell>
        <mxCell id="4EiAaAuF7udfYV3nGv_q-108" value="" style="endArrow=none;html=1;rounded=0;exitX=1;exitY=1;exitDx=0;exitDy=0;entryX=0;entryY=0.25;entryDx=0;entryDy=0;" edge="1" parent="1" source="4EiAaAuF7udfYV3nGv_q-109">
          <mxGeometry width="50" height="50" relative="1" as="geometry">
            <mxPoint x="460" y="713" as="sourcePoint" />
            <mxPoint x="310" y="713" as="targetPoint" />
          </mxGeometry>
        </mxCell>
        <mxCell id="4EiAaAuF7udfYV3nGv_q-109" value="Тех.Обслуживание" style="text;strokeColor=none;fillColor=none;fontSize=12;fontStyle=1;verticalAlign=middle;align=center;perimeterSpacing=0;" vertex="1" parent="1">
          <mxGeometry x="310" y="673" width="220" height="40" as="geometry" />
        </mxCell>
        <mxCell id="4EiAaAuF7udfYV3nGv_q-110" value="&lt;div style=&quot;text-align: left;&quot;&gt;&lt;ul style=&quot;margin: 13.716px 0px; padding-left: 27.432px; color: rgb(64, 64, 64); font-weight: 400; text-wrap-mode: wrap; background-color: rgb(255, 255, 255);&quot;&gt;&lt;li style=&quot;&quot;&gt;&lt;p style=&quot;margin-top: 0px; margin-right: 0px; margin-left: 0px; line-height: 28.575px; margin-bottom: 0px !important;&quot; class=&quot;ds-markdown-paragraph&quot;&gt;&lt;font style=&quot;font-size: 20px;&quot; face=&quot;Times New Roman&quot;&gt;maintenance_id (PK)&lt;/font&gt;&lt;/p&gt;&lt;/li&gt;&lt;li style=&quot;margin-top: 4px;&quot;&gt;&lt;p style=&quot;margin-top: 0px; margin-right: 0px; margin-left: 0px; line-height: 28.575px; margin-bottom: 0px !important;&quot; class=&quot;ds-markdown-paragraph&quot;&gt;&lt;font style=&quot;font-size: 20px;&quot; face=&quot;Times New Roman&quot;&gt;equipment_id (FK)&lt;/font&gt;&lt;/p&gt;&lt;/li&gt;&lt;li style=&quot;margin-top: 4px;&quot;&gt;&lt;p style=&quot;margin-top: 0px; margin-right: 0px; margin-left: 0px; line-height: 28.575px; margin-bottom: 0px !important;&quot; class=&quot;ds-markdown-paragraph&quot;&gt;&lt;font style=&quot;font-size: 20px;&quot; face=&quot;Times New Roman&quot;&gt;maintenance_type&lt;/font&gt;&lt;/p&gt;&lt;/li&gt;&lt;li style=&quot;margin-top: 4px;&quot;&gt;&lt;p style=&quot;margin-top: 0px; margin-right: 0px; margin-left: 0px; line-height: 28.575px; margin-bottom: 0px !important;&quot; class=&quot;ds-markdown-paragraph&quot;&gt;&lt;font style=&quot;font-size: 20px;&quot; face=&quot;Times New Roman&quot;&gt;start_date&lt;/font&gt;&lt;/p&gt;&lt;/li&gt;&lt;li style=&quot;margin-top: 4px;&quot;&gt;&lt;p style=&quot;margin-top: 0px; margin-right: 0px; margin-left: 0px; line-height: 28.575px; margin-bottom: 0px !important;&quot; class=&quot;ds-markdown-paragraph&quot;&gt;&lt;font style=&quot;font-size: 20px;&quot; face=&quot;Times New Roman&quot;&gt;end_date&lt;/font&gt;&lt;/p&gt;&lt;/li&gt;&lt;li style=&quot;margin-top: 4px;&quot;&gt;&lt;p style=&quot;margin-top: 0px; margin-right: 0px; margin-left: 0px; line-height: 28.575px; margin-bottom: 0px !important;&quot; class=&quot;ds-markdown-paragraph&quot;&gt;&lt;font style=&quot;font-size: 20px;&quot; face=&quot;Times New Roman&quot;&gt;status&lt;/font&gt;&lt;/p&gt;&lt;/li&gt;&lt;li style=&quot;margin-top: 4px;&quot;&gt;&lt;p style=&quot;margin-top: 0px; margin-right: 0px; margin-left: 0px; line-height: 28.575px; margin-bottom: 0px !important;&quot; class=&quot;ds-markdown-paragraph&quot;&gt;&lt;font style=&quot;font-size: 20px;&quot; face=&quot;Times New Roman&quot;&gt;performed_by (FK)&lt;/font&gt;&lt;/p&gt;&lt;/li&gt;&lt;li style=&quot;margin-top: 4px;&quot;&gt;&lt;p style=&quot;margin-top: 0px; margin-right: 0px; margin-left: 0px; line-height: 28.575px; margin-bottom: 0px !important;&quot; class=&quot;ds-markdown-paragraph&quot;&gt;&lt;font style=&quot;font-size: 20px;&quot; face=&quot;Times New Roman&quot;&gt;cost&lt;/font&gt;&lt;/p&gt;&lt;/li&gt;&lt;li style=&quot;margin-top: 4px;&quot;&gt;&lt;p style=&quot;margin-top: 0px; margin-right: 0px; margin-left: 0px; line-height: 28.575px; margin-bottom: 0px !important;&quot; class=&quot;ds-markdown-paragraph&quot;&gt;&lt;font style=&quot;font-size: 20px;&quot; face=&quot;Times New Roman&quot;&gt;description&lt;/font&gt;&lt;/p&gt;&lt;/li&gt;&lt;li style=&quot;margin-top: 4px;&quot;&gt;&lt;p style=&quot;margin-top: 0px; margin-right: 0px; margin-left: 0px; line-height: 28.575px; margin-bottom: 0px !important;&quot; class=&quot;ds-markdown-paragraph&quot;&gt;&lt;font style=&quot;font-size: 20px;&quot; face=&quot;Times New Roman&quot;&gt;parts_used&lt;/font&gt;&lt;/p&gt;&lt;/li&gt;&lt;/ul&gt;&lt;/div&gt;" style="text;strokeColor=none;fillColor=none;html=1;fontSize=24;fontStyle=1;verticalAlign=top;align=center;" vertex="1" parent="1">
          <mxGeometry x="310" y="713" width="220" height="470" as="geometry" />
        </mxCell>
        <mxCell id="4EiAaAuF7udfYV3nGv_q-111" value="" style="rounded=0;whiteSpace=wrap;html=1;" vertex="1" parent="1">
          <mxGeometry x="16" y="673" width="220" height="510" as="geometry" />
        </mxCell>
        <mxCell id="4EiAaAuF7udfYV3nGv_q-112" value="" style="endArrow=none;html=1;rounded=0;exitX=1;exitY=1;exitDx=0;exitDy=0;entryX=0;entryY=0.25;entryDx=0;entryDy=0;" edge="1" parent="1" source="4EiAaAuF7udfYV3nGv_q-113">
          <mxGeometry width="50" height="50" relative="1" as="geometry">
            <mxPoint x="166" y="713" as="sourcePoint" />
            <mxPoint x="16" y="713" as="targetPoint" />
          </mxGeometry>
        </mxCell>
        <mxCell id="4EiAaAuF7udfYV3nGv_q-113" value="Техника" style="text;strokeColor=none;fillColor=none;fontSize=12;fontStyle=1;verticalAlign=middle;align=center;perimeterSpacing=0;" vertex="1" parent="1">
          <mxGeometry x="16" y="673" width="220" height="40" as="geometry" />
        </mxCell>
        <mxCell id="4EiAaAuF7udfYV3nGv_q-114" value="&lt;div style=&quot;text-align: left;&quot;&gt;&lt;ul style=&quot;margin: 13.716px 0px; padding-left: 27.432px; color: rgb(64, 64, 64); font-weight: 400; text-wrap-mode: wrap;&quot;&gt;&lt;li style=&quot;&quot;&gt;&lt;p style=&quot;margin-top: 0px; margin-right: 0px; margin-left: 0px; line-height: 28.575px; margin-bottom: 0px !important;&quot; class=&quot;ds-markdown-paragraph&quot;&gt;&lt;span&gt;&lt;font style=&quot;font-size: 20px;&quot; face=&quot;Times New Roman&quot;&gt;equipment_id (PK)&lt;/font&gt;&lt;/span&gt;&lt;/p&gt;&lt;/li&gt;&lt;li style=&quot;margin-top: 4px;&quot;&gt;&lt;p style=&quot;margin-top: 0px; margin-right: 0px; margin-left: 0px; line-height: 28.575px; margin-bottom: 0px !important;&quot; class=&quot;ds-markdown-paragraph&quot;&gt;&lt;span&gt;&lt;font style=&quot;font-size: 20px;&quot; face=&quot;Times New Roman&quot;&gt;equipment_name&lt;/font&gt;&lt;/span&gt;&lt;/p&gt;&lt;/li&gt;&lt;li style=&quot;margin-top: 4px;&quot;&gt;&lt;p style=&quot;margin-top: 0px; margin-right: 0px; margin-left: 0px; line-height: 28.575px; margin-bottom: 0px !important;&quot; class=&quot;ds-markdown-paragraph&quot;&gt;&lt;span&gt;&lt;font style=&quot;font-size: 20px;&quot; face=&quot;Times New Roman&quot;&gt;equipment_type&lt;/font&gt;&lt;/span&gt;&lt;/p&gt;&lt;/li&gt;&lt;li style=&quot;margin-top: 4px;&quot;&gt;&lt;p style=&quot;margin-top: 0px; margin-right: 0px; margin-left: 0px; line-height: 28.575px; margin-bottom: 0px !important;&quot; class=&quot;ds-markdown-paragraph&quot;&gt;&lt;span&gt;&lt;font style=&quot;font-size: 20px;&quot; face=&quot;Times New Roman&quot;&gt;serial_number&lt;/font&gt;&lt;/span&gt;&lt;/p&gt;&lt;/li&gt;&lt;li style=&quot;margin-top: 4px;&quot;&gt;&lt;p style=&quot;margin-top: 0px; margin-right: 0px; margin-left: 0px; line-height: 28.575px; margin-bottom: 0px !important;&quot; class=&quot;ds-markdown-paragraph&quot;&gt;&lt;span&gt;&lt;font style=&quot;font-size: 20px;&quot; face=&quot;Times New Roman&quot;&gt;purchase_date&lt;/font&gt;&lt;/span&gt;&lt;/p&gt;&lt;/li&gt;&lt;li style=&quot;margin-top: 4px;&quot;&gt;&lt;p style=&quot;margin-top: 0px; margin-right: 0px; margin-left: 0px; line-height: 28.575px; margin-bottom: 0px !important;&quot; class=&quot;ds-markdown-paragraph&quot;&gt;&lt;span&gt;&lt;font style=&quot;font-size: 20px;&quot; face=&quot;Times New Roman&quot;&gt;current_status (рабочий, ремонт, списан)&lt;/font&gt;&lt;/span&gt;&lt;/p&gt;&lt;/li&gt;&lt;li style=&quot;margin-top: 4px;&quot;&gt;&lt;p style=&quot;margin-top: 0px; margin-right: 0px; margin-left: 0px; line-height: 28.575px; margin-bottom: 0px !important;&quot; class=&quot;ds-markdown-paragraph&quot;&gt;&lt;span&gt;&lt;font style=&quot;font-size: 20px;&quot; face=&quot;Times New Roman&quot;&gt;location_id (FK)&lt;/font&gt;&lt;/span&gt;&lt;/p&gt;&lt;/li&gt;&lt;li style=&quot;margin-top: 4px;&quot;&gt;&lt;p style=&quot;margin-top: 0px; margin-right: 0px; margin-left: 0px; line-height: 28.575px; margin-bottom: 0px !important;&quot; class=&quot;ds-markdown-paragraph&quot;&gt;&lt;span&gt;&lt;font style=&quot;font-size: 20px;&quot; face=&quot;Times New Roman&quot;&gt;last_maintenance_date&lt;/font&gt;&lt;/span&gt;&lt;/p&gt;&lt;/li&gt;&lt;li style=&quot;margin-top: 4px;&quot;&gt;&lt;p style=&quot;margin-top: 0px; margin-right: 0px; margin-left: 0px; line-height: 28.575px; margin-bottom: 0px !important;&quot; class=&quot;ds-markdown-paragraph&quot;&gt;&lt;span&gt;&lt;font style=&quot;font-size: 20px;&quot; face=&quot;Times New Roman&quot;&gt;next_maintenance_date&lt;/font&gt;&lt;/span&gt;&lt;/p&gt;&lt;/li&gt;&lt;li style=&quot;margin-top: 4px;&quot;&gt;&lt;p style=&quot;margin-top: 0px; margin-right: 0px; margin-left: 0px; line-height: 28.575px; margin-bottom: 0px !important;&quot; class=&quot;ds-markdown-paragraph&quot;&gt;&lt;span&gt;&lt;font style=&quot;font-size: 20px;&quot; face=&quot;Times New Roman&quot;&gt;additional_info&lt;/font&gt;&lt;/span&gt;&lt;/p&gt;&lt;/li&gt;&lt;/ul&gt;&lt;/div&gt;" style="text;strokeColor=none;fillColor=none;html=1;fontSize=24;fontStyle=1;verticalAlign=top;align=center;" vertex="1" parent="1">
          <mxGeometry x="16" y="713" width="220" height="470" as="geometry" />
        </mxCell>
        <mxCell id="4EiAaAuF7udfYV3nGv_q-115" value="" style="rounded=0;whiteSpace=wrap;html=1;" vertex="1" parent="1">
          <mxGeometry x="603" y="105" width="220" height="511" as="geometry" />
        </mxCell>
        <mxCell id="4EiAaAuF7udfYV3nGv_q-116" value="" style="endArrow=none;html=1;rounded=0;exitX=1;exitY=0;exitDx=0;exitDy=0;entryX=0;entryY=0;entryDx=0;entryDy=0;" edge="1" parent="1" source="4EiAaAuF7udfYV3nGv_q-118" target="4EiAaAuF7udfYV3nGv_q-118">
          <mxGeometry width="50" height="50" relative="1" as="geometry">
            <mxPoint x="753" y="69" as="sourcePoint" />
            <mxPoint x="603" y="69" as="targetPoint" />
          </mxGeometry>
        </mxCell>
        <mxCell id="4EiAaAuF7udfYV3nGv_q-117" value="Заявки на материалы" style="text;strokeColor=none;fillColor=none;fontSize=12;fontStyle=1;verticalAlign=middle;align=center;perimeterSpacing=0;" vertex="1" parent="1">
          <mxGeometry x="603" y="105" width="220" height="34" as="geometry" />
        </mxCell>
        <mxCell id="4EiAaAuF7udfYV3nGv_q-118" value="&lt;div style=&quot;text-align: left;&quot;&gt;&lt;ul style=&quot;margin: 13.716px 0px; padding-left: 27.432px; color: rgb(64, 64, 64); font-weight: 400; text-wrap-mode: wrap; background-color: rgb(255, 255, 255);&quot;&gt;&lt;li style=&quot;&quot;&gt;&lt;p style=&quot;margin-top: 0px; margin-right: 0px; margin-left: 0px; line-height: 28.575px; margin-bottom: 0px !important;&quot; class=&quot;ds-markdown-paragraph&quot;&gt;&lt;font face=&quot;Times New Roman&quot; style=&quot;font-size: 20px;&quot;&gt;request_id (PK)&lt;/font&gt;&lt;/p&gt;&lt;/li&gt;&lt;li style=&quot;margin-top: 4px;&quot;&gt;&lt;p style=&quot;margin-top: 0px; margin-right: 0px; margin-left: 0px; line-height: 28.575px; margin-bottom: 0px !important;&quot; class=&quot;ds-markdown-paragraph&quot;&gt;&lt;font face=&quot;Times New Roman&quot; style=&quot;font-size: 20px;&quot;&gt;object_id (FK)&lt;/font&gt;&lt;/p&gt;&lt;/li&gt;&lt;li style=&quot;margin-top: 4px;&quot;&gt;&lt;p style=&quot;margin-top: 0px; margin-right: 0px; margin-left: 0px; line-height: 28.575px; margin-bottom: 0px !important;&quot; class=&quot;ds-markdown-paragraph&quot;&gt;&lt;font face=&quot;Times New Roman&quot; style=&quot;font-size: 20px;&quot;&gt;material_id (FK)&lt;/font&gt;&lt;/p&gt;&lt;/li&gt;&lt;li style=&quot;margin-top: 4px;&quot;&gt;&lt;p style=&quot;margin-top: 0px; margin-right: 0px; margin-left: 0px; line-height: 28.575px; margin-bottom: 0px !important;&quot; class=&quot;ds-markdown-paragraph&quot;&gt;&lt;font face=&quot;Times New Roman&quot; style=&quot;font-size: 20px;&quot;&gt;requested_quantity&lt;/font&gt;&lt;/p&gt;&lt;/li&gt;&lt;li style=&quot;margin-top: 4px;&quot;&gt;&lt;p style=&quot;margin-top: 0px; margin-right: 0px; margin-left: 0px; line-height: 28.575px; margin-bottom: 0px !important;&quot; class=&quot;ds-markdown-paragraph&quot;&gt;&lt;font face=&quot;Times New Roman&quot; style=&quot;font-size: 20px;&quot;&gt;request_date&lt;/font&gt;&lt;/p&gt;&lt;/li&gt;&lt;li style=&quot;margin-top: 4px;&quot;&gt;&lt;p style=&quot;margin-top: 0px; margin-right: 0px; margin-left: 0px; line-height: 28.575px; margin-bottom: 0px !important;&quot; class=&quot;ds-markdown-paragraph&quot;&gt;&lt;font face=&quot;Times New Roman&quot; style=&quot;font-size: 20px;&quot;&gt;required_by_date&lt;/font&gt;&lt;/p&gt;&lt;/li&gt;&lt;li style=&quot;margin-top: 4px;&quot;&gt;&lt;p style=&quot;margin-top: 0px; margin-right: 0px; margin-left: 0px; line-height: 28.575px; margin-bottom: 0px !important;&quot; class=&quot;ds-markdown-paragraph&quot;&gt;&lt;font face=&quot;Times New Roman&quot; style=&quot;font-size: 20px;&quot;&gt;status&lt;/font&gt;&lt;/p&gt;&lt;/li&gt;&lt;li style=&quot;margin-top: 4px;&quot;&gt;&lt;p style=&quot;margin-top: 0px; margin-right: 0px; margin-left: 0px; line-height: 28.575px; margin-bottom: 0px !important;&quot; class=&quot;ds-markdown-paragraph&quot;&gt;&lt;font face=&quot;Times New Roman&quot; style=&quot;font-size: 20px;&quot;&gt;requested_by (FK)&lt;/font&gt;&lt;/p&gt;&lt;/li&gt;&lt;li style=&quot;margin-top: 4px;&quot;&gt;&lt;p style=&quot;margin-top: 0px; margin-right: 0px; margin-left: 0px; line-height: 28.575px; margin-bottom: 0px !important;&quot; class=&quot;ds-markdown-paragraph&quot;&gt;&lt;font face=&quot;Times New Roman&quot; style=&quot;font-size: 20px;&quot;&gt;approved_by (FK)&lt;/font&gt;&lt;/p&gt;&lt;/li&gt;&lt;li style=&quot;margin-top: 4px;&quot;&gt;&lt;p style=&quot;margin-top: 0px; margin-right: 0px; margin-left: 0px; line-height: 28.575px; margin-bottom: 0px !important;&quot; class=&quot;ds-markdown-paragraph&quot;&gt;&lt;font face=&quot;Times New Roman&quot; style=&quot;font-size: 20px;&quot;&gt;approval_date&lt;/font&gt;&lt;/p&gt;&lt;/li&gt;&lt;li style=&quot;margin-top: 4px;&quot;&gt;&lt;p style=&quot;margin-top: 0px; margin-right: 0px; margin-left: 0px; line-height: 28.575px; margin-bottom: 0px !important;&quot; class=&quot;ds-markdown-paragraph&quot;&gt;&lt;font face=&quot;Times New Roman&quot; style=&quot;font-size: 20px;&quot;&gt;notes&lt;/font&gt;&lt;/p&gt;&lt;/li&gt;&lt;/ul&gt;&lt;/div&gt;" style="text;strokeColor=none;fillColor=none;html=1;fontSize=24;fontStyle=1;verticalAlign=top;align=center;" vertex="1" parent="1">
          <mxGeometry x="603" y="143" width="220" height="473" as="geometry" />
        </mxCell>
        <mxCell id="4EiAaAuF7udfYV3nGv_q-119" value="" style="rounded=0;whiteSpace=wrap;html=1;" vertex="1" parent="1">
          <mxGeometry x="-947" y="-1427" width="220" height="373" as="geometry" />
        </mxCell>
        <mxCell id="4EiAaAuF7udfYV3nGv_q-120" value="" style="endArrow=none;html=1;rounded=0;exitX=1;exitY=1;exitDx=0;exitDy=0;entryX=0;entryY=0.25;entryDx=0;entryDy=0;" edge="1" parent="1" source="4EiAaAuF7udfYV3nGv_q-121">
          <mxGeometry width="50" height="50" relative="1" as="geometry">
            <mxPoint x="-797" y="-1387" as="sourcePoint" />
            <mxPoint x="-947" y="-1387" as="targetPoint" />
          </mxGeometry>
        </mxCell>
        <mxCell id="4EiAaAuF7udfYV3nGv_q-121" value="Заказчики" style="text;strokeColor=none;fillColor=none;fontSize=12;fontStyle=1;verticalAlign=middle;align=center;perimeterSpacing=0;" vertex="1" parent="1">
          <mxGeometry x="-947" y="-1427" width="220" height="40" as="geometry" />
        </mxCell>
        <mxCell id="4EiAaAuF7udfYV3nGv_q-122" value="&lt;div style=&quot;text-align: left;&quot;&gt;&lt;div&gt;&lt;ul style=&quot;margin: 13.716px 0px; padding-left: 27.432px; color: rgb(64, 64, 64); font-weight: 400; text-wrap-mode: wrap; background-color: rgb(255, 255, 255);&quot;&gt;&lt;li style=&quot;&quot;&gt;&lt;p style=&quot;margin-top: 0px; margin-right: 0px; margin-left: 0px; line-height: 28.575px; margin-bottom: 0px !important;&quot; class=&quot;ds-markdown-paragraph&quot;&gt;&lt;font style=&quot;font-size: 20px;&quot; face=&quot;Times New Roman&quot;&gt;client_id (PK)&lt;/font&gt;&lt;/p&gt;&lt;/li&gt;&lt;li style=&quot;margin-top: 4px;&quot;&gt;&lt;p style=&quot;margin-top: 0px; margin-right: 0px; margin-left: 0px; line-height: 28.575px; margin-bottom: 0px !important;&quot; class=&quot;ds-markdown-paragraph&quot;&gt;&lt;font style=&quot;font-size: 20px;&quot; face=&quot;Times New Roman&quot;&gt;client_name&lt;/font&gt;&lt;/p&gt;&lt;/li&gt;&lt;li style=&quot;margin-top: 4px;&quot;&gt;&lt;p style=&quot;margin-top: 0px; margin-right: 0px; margin-left: 0px; line-height: 28.575px; margin-bottom: 0px !important;&quot; class=&quot;ds-markdown-paragraph&quot;&gt;&lt;font style=&quot;font-size: 20px;&quot; face=&quot;Times New Roman&quot;&gt;contact_person&lt;/font&gt;&lt;/p&gt;&lt;/li&gt;&lt;li style=&quot;margin-top: 4px;&quot;&gt;&lt;p style=&quot;margin-top: 0px; margin-right: 0px; margin-left: 0px; line-height: 28.575px; margin-bottom: 0px !important;&quot; class=&quot;ds-markdown-paragraph&quot;&gt;&lt;font style=&quot;font-size: 20px;&quot; face=&quot;Times New Roman&quot;&gt;phone&lt;/font&gt;&lt;/p&gt;&lt;/li&gt;&lt;li style=&quot;margin-top: 4px;&quot;&gt;&lt;p style=&quot;margin-top: 0px; margin-right: 0px; margin-left: 0px; line-height: 28.575px; margin-bottom: 0px !important;&quot; class=&quot;ds-markdown-paragraph&quot;&gt;&lt;font style=&quot;font-size: 20px;&quot; face=&quot;Times New Roman&quot;&gt;email&lt;/font&gt;&lt;/p&gt;&lt;/li&gt;&lt;li style=&quot;margin-top: 4px;&quot;&gt;&lt;p style=&quot;margin-top: 0px; margin-right: 0px; margin-left: 0px; line-height: 28.575px; margin-bottom: 0px !important;&quot; class=&quot;ds-markdown-paragraph&quot;&gt;&lt;font style=&quot;font-size: 20px;&quot; face=&quot;Times New Roman&quot;&gt;address&lt;/font&gt;&lt;/p&gt;&lt;/li&gt;&lt;li style=&quot;margin-top: 4px;&quot;&gt;&lt;p style=&quot;margin-top: 0px; margin-right: 0px; margin-left: 0px; line-height: 28.575px; margin-bottom: 0px !important;&quot; class=&quot;ds-markdown-paragraph&quot;&gt;&lt;font style=&quot;font-size: 20px;&quot; face=&quot;Times New Roman&quot;&gt;tax_number&lt;/font&gt;&lt;/p&gt;&lt;/li&gt;&lt;li style=&quot;margin-top: 4px;&quot;&gt;&lt;p style=&quot;margin-top: 0px; margin-right: 0px; margin-left: 0px; line-height: 28.575px; margin-bottom: 0px !important;&quot; class=&quot;ds-markdown-paragraph&quot;&gt;&lt;font style=&quot;font-size: 20px;&quot; face=&quot;Times New Roman&quot;&gt;bank_details&lt;/font&gt;&lt;/p&gt;&lt;/li&gt;&lt;li style=&quot;margin-top: 4px;&quot;&gt;&lt;p style=&quot;margin-top: 0px; margin-right: 0px; margin-left: 0px; line-height: 28.575px; margin-bottom: 0px !important;&quot; class=&quot;ds-markdown-paragraph&quot;&gt;&lt;font style=&quot;font-size: 20px;&quot; face=&quot;Times New Roman&quot;&gt;additional_info&lt;/font&gt;&lt;/p&gt;&lt;/li&gt;&lt;/ul&gt;&lt;/div&gt;&lt;/div&gt;" style="text;strokeColor=none;fillColor=none;html=1;fontSize=24;fontStyle=1;verticalAlign=top;align=center;" vertex="1" parent="1">
          <mxGeometry x="-947" y="-1387" width="219.5" height="331" as="geometry" />
        </mxCell>
        <mxCell id="4EiAaAuF7udfYV3nGv_q-123" value="" style="rounded=0;whiteSpace=wrap;html=1;" vertex="1" parent="1">
          <mxGeometry x="-1549" y="-1426" width="220" height="466" as="geometry" />
        </mxCell>
        <mxCell id="4EiAaAuF7udfYV3nGv_q-124" value="" style="endArrow=none;html=1;rounded=0;exitX=1;exitY=1;exitDx=0;exitDy=0;entryX=0;entryY=0.25;entryDx=0;entryDy=0;" edge="1" parent="1" source="4EiAaAuF7udfYV3nGv_q-125">
          <mxGeometry width="50" height="50" relative="1" as="geometry">
            <mxPoint x="-1399" y="-1386" as="sourcePoint" />
            <mxPoint x="-1549" y="-1386" as="targetPoint" />
          </mxGeometry>
        </mxCell>
        <mxCell id="4EiAaAuF7udfYV3nGv_q-125" value="Проектная документация" style="text;strokeColor=none;fillColor=none;fontSize=12;fontStyle=1;verticalAlign=middle;align=center;perimeterSpacing=0;" vertex="1" parent="1">
          <mxGeometry x="-1549" y="-1426" width="220" height="40" as="geometry" />
        </mxCell>
        <mxCell id="4EiAaAuF7udfYV3nGv_q-126" value="&lt;div style=&quot;text-align: left;&quot;&gt;&lt;div&gt;&lt;ul style=&quot;margin: 13.716px 0px; padding-left: 27.432px; color: rgb(64, 64, 64); font-weight: 400; text-wrap-mode: wrap; background-color: rgb(255, 255, 255);&quot;&gt;&lt;li style=&quot;&quot;&gt;&lt;p style=&quot;margin-top: 0px; margin-right: 0px; margin-left: 0px; line-height: 28.575px; margin-bottom: 0px !important;&quot; class=&quot;ds-markdown-paragraph&quot;&gt;&lt;font style=&quot;font-size: 20px;&quot; face=&quot;Times New Roman&quot;&gt;document_id (PK)&lt;/font&gt;&lt;/p&gt;&lt;/li&gt;&lt;li style=&quot;margin-top: 4px;&quot;&gt;&lt;p style=&quot;margin-top: 0px; margin-right: 0px; margin-left: 0px; line-height: 28.575px; margin-bottom: 0px !important;&quot; class=&quot;ds-markdown-paragraph&quot;&gt;&lt;font style=&quot;font-size: 20px;&quot; face=&quot;Times New Roman&quot;&gt;object_id (FK)&lt;/font&gt;&lt;/p&gt;&lt;/li&gt;&lt;li style=&quot;margin-top: 4px;&quot;&gt;&lt;p style=&quot;margin-top: 0px; margin-right: 0px; margin-left: 0px; line-height: 28.575px; margin-bottom: 0px !important;&quot; class=&quot;ds-markdown-paragraph&quot;&gt;&lt;font style=&quot;font-size: 20px;&quot; face=&quot;Times New Roman&quot;&gt;document_name&lt;/font&gt;&lt;/p&gt;&lt;/li&gt;&lt;li style=&quot;margin-top: 4px;&quot;&gt;&lt;p style=&quot;margin-top: 0px; margin-right: 0px; margin-left: 0px; line-height: 28.575px; margin-bottom: 0px !important;&quot; class=&quot;ds-markdown-paragraph&quot;&gt;&lt;font style=&quot;font-size: 20px;&quot; face=&quot;Times New Roman&quot;&gt;document_type&lt;/font&gt;&lt;/p&gt;&lt;/li&gt;&lt;li style=&quot;margin-top: 4px;&quot;&gt;&lt;p style=&quot;margin-top: 0px; margin-right: 0px; margin-left: 0px; line-height: 28.575px; margin-bottom: 0px !important;&quot; class=&quot;ds-markdown-paragraph&quot;&gt;&lt;font style=&quot;font-size: 20px;&quot; face=&quot;Times New Roman&quot;&gt;creation_date&lt;/font&gt;&lt;/p&gt;&lt;/li&gt;&lt;li style=&quot;margin-top: 4px;&quot;&gt;&lt;p style=&quot;margin-top: 0px; margin-right: 0px; margin-left: 0px; line-height: 28.575px; margin-bottom: 0px !important;&quot; class=&quot;ds-markdown-paragraph&quot;&gt;&lt;font style=&quot;font-size: 20px;&quot; face=&quot;Times New Roman&quot;&gt;last_update_date&lt;/font&gt;&lt;/p&gt;&lt;/li&gt;&lt;li style=&quot;margin-top: 4px;&quot;&gt;&lt;p style=&quot;margin-top: 0px; margin-right: 0px; margin-left: 0px; line-height: 28.575px; margin-bottom: 0px !important;&quot; class=&quot;ds-markdown-paragraph&quot;&gt;&lt;font style=&quot;font-size: 20px;&quot; face=&quot;Times New Roman&quot;&gt;author_id (FK)&lt;/font&gt;&lt;/p&gt;&lt;/li&gt;&lt;li style=&quot;margin-top: 4px;&quot;&gt;&lt;p style=&quot;margin-top: 0px; margin-right: 0px; margin-left: 0px; line-height: 28.575px; margin-bottom: 0px !important;&quot; class=&quot;ds-markdown-paragraph&quot;&gt;&lt;font style=&quot;font-size: 20px;&quot; face=&quot;Times New Roman&quot;&gt;file_path&lt;/font&gt;&lt;/p&gt;&lt;/li&gt;&lt;li style=&quot;margin-top: 4px;&quot;&gt;&lt;p style=&quot;margin-top: 0px; margin-right: 0px; margin-left: 0px; line-height: 28.575px; margin-bottom: 0px !important;&quot; class=&quot;ds-markdown-paragraph&quot;&gt;&lt;font style=&quot;font-size: 20px;&quot; face=&quot;Times New Roman&quot;&gt;version&lt;/font&gt;&lt;/p&gt;&lt;/li&gt;&lt;li style=&quot;margin-top: 4px;&quot;&gt;&lt;p style=&quot;margin-top: 0px; margin-right: 0px; margin-left: 0px; line-height: 28.575px; margin-bottom: 0px !important;&quot; class=&quot;ds-markdown-paragraph&quot;&gt;&lt;font style=&quot;font-size: 20px;&quot; face=&quot;Times New Roman&quot;&gt;status&lt;/font&gt;&lt;/p&gt;&lt;/li&gt;&lt;li style=&quot;margin-top: 4px;&quot;&gt;&lt;p style=&quot;margin-top: 0px; margin-right: 0px; margin-left: 0px; line-height: 28.575px; margin-bottom: 0px !important;&quot; class=&quot;ds-markdown-paragraph&quot;&gt;&lt;font style=&quot;font-size: 20px;&quot; face=&quot;Times New Roman&quot;&gt;description&lt;/font&gt;&lt;/p&gt;&lt;/li&gt;&lt;/ul&gt;&lt;/div&gt;&lt;/div&gt;" style="text;strokeColor=none;fillColor=none;html=1;fontSize=24;fontStyle=1;verticalAlign=top;align=center;" vertex="1" parent="1">
          <mxGeometry x="-1548.5" y="-1386" width="219.5" height="431" as="geometry" />
        </mxCell>
        <mxCell id="4EiAaAuF7udfYV3nGv_q-127" value="" style="rounded=0;whiteSpace=wrap;html=1;" vertex="1" parent="1">
          <mxGeometry x="20.5" y="1250" width="220" height="510" as="geometry" />
        </mxCell>
        <mxCell id="4EiAaAuF7udfYV3nGv_q-128" value="" style="endArrow=none;html=1;rounded=0;exitX=1;exitY=1;exitDx=0;exitDy=0;entryX=0;entryY=0.25;entryDx=0;entryDy=0;" edge="1" parent="1" source="4EiAaAuF7udfYV3nGv_q-129">
          <mxGeometry width="50" height="50" relative="1" as="geometry">
            <mxPoint x="170.5" y="1290" as="sourcePoint" />
            <mxPoint x="20.5" y="1290" as="targetPoint" />
          </mxGeometry>
        </mxCell>
        <mxCell id="4EiAaAuF7udfYV3nGv_q-129" value="Строительные материалы" style="text;strokeColor=none;fillColor=none;fontSize=12;fontStyle=1;verticalAlign=middle;align=center;perimeterSpacing=0;" vertex="1" parent="1">
          <mxGeometry x="20.5" y="1250" width="220" height="40" as="geometry" />
        </mxCell>
        <mxCell id="4EiAaAuF7udfYV3nGv_q-130" value="&lt;div style=&quot;text-align: left;&quot;&gt;&lt;ul style=&quot;margin: 13.716px 0px; padding-left: 27.432px; color: rgb(64, 64, 64); font-weight: 400; text-wrap-mode: wrap; background-color: rgb(255, 255, 255);&quot;&gt;&lt;li style=&quot;&quot;&gt;&lt;p style=&quot;margin-top: 0px; margin-right: 0px; margin-left: 0px; line-height: 28.575px; margin-bottom: 0px !important;&quot; class=&quot;ds-markdown-paragraph&quot;&gt;&lt;font style=&quot;font-size: 20px;&quot; face=&quot;Times New Roman&quot;&gt;material_id (PK)&lt;/font&gt;&lt;/p&gt;&lt;/li&gt;&lt;li style=&quot;margin-top: 4px;&quot;&gt;&lt;p style=&quot;margin-top: 0px; margin-right: 0px; margin-left: 0px; line-height: 28.575px; margin-bottom: 0px !important;&quot; class=&quot;ds-markdown-paragraph&quot;&gt;&lt;font style=&quot;font-size: 20px;&quot; face=&quot;Times New Roman&quot;&gt;material_name&lt;/font&gt;&lt;/p&gt;&lt;/li&gt;&lt;li style=&quot;margin-top: 4px;&quot;&gt;&lt;p style=&quot;margin-top: 0px; margin-right: 0px; margin-left: 0px; line-height: 28.575px; margin-bottom: 0px !important;&quot; class=&quot;ds-markdown-paragraph&quot;&gt;&lt;font style=&quot;font-size: 20px;&quot; face=&quot;Times New Roman&quot;&gt;material_type&lt;/font&gt;&lt;/p&gt;&lt;/li&gt;&lt;li style=&quot;margin-top: 4px;&quot;&gt;&lt;p style=&quot;margin-top: 0px; margin-right: 0px; margin-left: 0px; line-height: 28.575px; margin-bottom: 0px !important;&quot; class=&quot;ds-markdown-paragraph&quot;&gt;&lt;font style=&quot;font-size: 20px;&quot; face=&quot;Times New Roman&quot;&gt;unit_of_measure&lt;/font&gt;&lt;/p&gt;&lt;/li&gt;&lt;li style=&quot;margin-top: 4px;&quot;&gt;&lt;p style=&quot;margin-top: 0px; margin-right: 0px; margin-left: 0px; line-height: 28.575px; margin-bottom: 0px !important;&quot; class=&quot;ds-markdown-paragraph&quot;&gt;&lt;font style=&quot;font-size: 20px;&quot; face=&quot;Times New Roman&quot;&gt;current_quantity&lt;/font&gt;&lt;/p&gt;&lt;/li&gt;&lt;li style=&quot;margin-top: 4px;&quot;&gt;&lt;p style=&quot;margin-top: 0px; margin-right: 0px; margin-left: 0px; line-height: 28.575px; margin-bottom: 0px !important;&quot; class=&quot;ds-markdown-paragraph&quot;&gt;&lt;font style=&quot;font-size: 20px;&quot; face=&quot;Times New Roman&quot;&gt;min_quantity&lt;/font&gt;&lt;/p&gt;&lt;/li&gt;&lt;li style=&quot;margin-top: 4px;&quot;&gt;&lt;p style=&quot;margin-top: 0px; margin-right: 0px; margin-left: 0px; line-height: 28.575px; margin-bottom: 0px !important;&quot; class=&quot;ds-markdown-paragraph&quot;&gt;&lt;font style=&quot;font-size: 20px;&quot; face=&quot;Times New Roman&quot;&gt;supplier_id (FK)&lt;/font&gt;&lt;/p&gt;&lt;/li&gt;&lt;li style=&quot;margin-top: 4px;&quot;&gt;&lt;p style=&quot;margin-top: 0px; margin-right: 0px; margin-left: 0px; line-height: 28.575px; margin-bottom: 0px !important;&quot; class=&quot;ds-markdown-paragraph&quot;&gt;&lt;font style=&quot;font-size: 20px;&quot; face=&quot;Times New Roman&quot;&gt;storage_location&lt;/font&gt;&lt;/p&gt;&lt;/li&gt;&lt;li style=&quot;margin-top: 4px;&quot;&gt;&lt;p style=&quot;margin-top: 0px; margin-right: 0px; margin-left: 0px; line-height: 28.575px; margin-bottom: 0px !important;&quot; class=&quot;ds-markdown-paragraph&quot;&gt;&lt;font style=&quot;font-size: 20px;&quot; face=&quot;Times New Roman&quot;&gt;price_per_unit&lt;/font&gt;&lt;/p&gt;&lt;/li&gt;&lt;li style=&quot;margin-top: 4px;&quot;&gt;&lt;p style=&quot;margin-top: 0px; margin-right: 0px; margin-left: 0px; line-height: 28.575px; margin-bottom: 0px !important;&quot; class=&quot;ds-markdown-paragraph&quot;&gt;&lt;font style=&quot;font-size: 20px;&quot; face=&quot;Times New Roman&quot;&gt;additional_info&lt;/font&gt;&lt;/p&gt;&lt;/li&gt;&lt;/ul&gt;&lt;/div&gt;" style="text;strokeColor=none;fillColor=none;html=1;fontSize=24;fontStyle=1;verticalAlign=top;align=center;" vertex="1" parent="1">
          <mxGeometry x="20.5" y="1290" width="220" height="470" as="geometry" />
        </mxCell>
        <mxCell id="4EiAaAuF7udfYV3nGv_q-131" value="" style="rounded=0;whiteSpace=wrap;html=1;" vertex="1" parent="1">
          <mxGeometry x="310" y="1250" width="220" height="510" as="geometry" />
        </mxCell>
        <mxCell id="4EiAaAuF7udfYV3nGv_q-132" value="" style="endArrow=none;html=1;rounded=0;exitX=1;exitY=1;exitDx=0;exitDy=0;entryX=0;entryY=0.25;entryDx=0;entryDy=0;" edge="1" parent="1" source="4EiAaAuF7udfYV3nGv_q-133">
          <mxGeometry width="50" height="50" relative="1" as="geometry">
            <mxPoint x="460" y="1290" as="sourcePoint" />
            <mxPoint x="310" y="1290" as="targetPoint" />
          </mxGeometry>
        </mxCell>
        <mxCell id="4EiAaAuF7udfYV3nGv_q-133" value="Поставщики" style="text;strokeColor=none;fillColor=none;fontSize=12;fontStyle=1;verticalAlign=middle;align=center;perimeterSpacing=0;" vertex="1" parent="1">
          <mxGeometry x="310" y="1250" width="220" height="40" as="geometry" />
        </mxCell>
        <mxCell id="4EiAaAuF7udfYV3nGv_q-134" value="&lt;div style=&quot;text-align: left;&quot;&gt;&lt;ul style=&quot;margin: 13.716px 0px; padding-left: 27.432px; color: rgb(64, 64, 64); font-weight: 400; text-wrap-mode: wrap; background-color: rgb(255, 255, 255);&quot;&gt;&lt;li style=&quot;&quot;&gt;&lt;p style=&quot;margin-top: 0px; margin-right: 0px; margin-left: 0px; line-height: 28.575px; margin-bottom: 0px !important;&quot; class=&quot;ds-markdown-paragraph&quot;&gt;&lt;font style=&quot;font-size: 20px;&quot; face=&quot;Times New Roman&quot;&gt;supplier_id (PK)&lt;/font&gt;&lt;/p&gt;&lt;/li&gt;&lt;li style=&quot;margin-top: 4px;&quot;&gt;&lt;p style=&quot;margin-top: 0px; margin-right: 0px; margin-left: 0px; line-height: 28.575px; margin-bottom: 0px !important;&quot; class=&quot;ds-markdown-paragraph&quot;&gt;&lt;font style=&quot;font-size: 20px;&quot; face=&quot;Times New Roman&quot;&gt;supplier_name&lt;/font&gt;&lt;/p&gt;&lt;/li&gt;&lt;li style=&quot;margin-top: 4px;&quot;&gt;&lt;p style=&quot;margin-top: 0px; margin-right: 0px; margin-left: 0px; line-height: 28.575px; margin-bottom: 0px !important;&quot; class=&quot;ds-markdown-paragraph&quot;&gt;&lt;font style=&quot;font-size: 20px;&quot; face=&quot;Times New Roman&quot;&gt;contact_person&lt;/font&gt;&lt;/p&gt;&lt;/li&gt;&lt;li style=&quot;margin-top: 4px;&quot;&gt;&lt;p style=&quot;margin-top: 0px; margin-right: 0px; margin-left: 0px; line-height: 28.575px; margin-bottom: 0px !important;&quot; class=&quot;ds-markdown-paragraph&quot;&gt;&lt;font style=&quot;font-size: 20px;&quot; face=&quot;Times New Roman&quot;&gt;phone&lt;/font&gt;&lt;/p&gt;&lt;/li&gt;&lt;li style=&quot;margin-top: 4px;&quot;&gt;&lt;p style=&quot;margin-top: 0px; margin-right: 0px; margin-left: 0px; line-height: 28.575px; margin-bottom: 0px !important;&quot; class=&quot;ds-markdown-paragraph&quot;&gt;&lt;font style=&quot;font-size: 20px;&quot; face=&quot;Times New Roman&quot;&gt;email&lt;/font&gt;&lt;/p&gt;&lt;/li&gt;&lt;li style=&quot;margin-top: 4px;&quot;&gt;&lt;p style=&quot;margin-top: 0px; margin-right: 0px; margin-left: 0px; line-height: 28.575px; margin-bottom: 0px !important;&quot; class=&quot;ds-markdown-paragraph&quot;&gt;&lt;font style=&quot;font-size: 20px;&quot; face=&quot;Times New Roman&quot;&gt;address&lt;/font&gt;&lt;/p&gt;&lt;/li&gt;&lt;li style=&quot;margin-top: 4px;&quot;&gt;&lt;p style=&quot;margin-top: 0px; margin-right: 0px; margin-left: 0px; line-height: 28.575px; margin-bottom: 0px !important;&quot; class=&quot;ds-markdown-paragraph&quot;&gt;&lt;font style=&quot;font-size: 20px;&quot; face=&quot;Times New Roman&quot;&gt;tax_number&lt;/font&gt;&lt;/p&gt;&lt;/li&gt;&lt;li style=&quot;margin-top: 4px;&quot;&gt;&lt;p style=&quot;margin-top: 0px; margin-right: 0px; margin-left: 0px; line-height: 28.575px; margin-bottom: 0px !important;&quot; class=&quot;ds-markdown-paragraph&quot;&gt;&lt;font style=&quot;font-size: 20px;&quot; face=&quot;Times New Roman&quot;&gt;bank_details&lt;/font&gt;&lt;/p&gt;&lt;/li&gt;&lt;li style=&quot;margin-top: 4px;&quot;&gt;&lt;p style=&quot;margin-top: 0px; margin-right: 0px; margin-left: 0px; line-height: 28.575px; margin-bottom: 0px !important;&quot; class=&quot;ds-markdown-paragraph&quot;&gt;&lt;font style=&quot;font-size: 20px;&quot; face=&quot;Times New Roman&quot;&gt;supplied_materials&lt;/font&gt;&lt;/p&gt;&lt;/li&gt;&lt;li style=&quot;margin-top: 4px;&quot;&gt;&lt;p style=&quot;margin-top: 0px; margin-right: 0px; margin-left: 0px; line-height: 28.575px; margin-bottom: 0px !important;&quot; class=&quot;ds-markdown-paragraph&quot;&gt;&lt;font style=&quot;font-size: 20px;&quot; face=&quot;Times New Roman&quot;&gt;rating&lt;/font&gt;&lt;/p&gt;&lt;/li&gt;&lt;li style=&quot;margin-top: 4px;&quot;&gt;&lt;p style=&quot;margin-top: 0px; margin-right: 0px; margin-left: 0px; line-height: 28.575px; margin-bottom: 0px !important;&quot; class=&quot;ds-markdown-paragraph&quot;&gt;&lt;font style=&quot;font-size: 20px;&quot; face=&quot;Times New Roman&quot;&gt;additional_info&lt;/font&gt;&lt;/p&gt;&lt;/li&gt;&lt;/ul&gt;&lt;/div&gt;" style="text;strokeColor=none;fillColor=none;html=1;fontSize=24;fontStyle=1;verticalAlign=top;align=center;" vertex="1" parent="1">
          <mxGeometry x="313" y="1290" width="220" height="470" as="geometry" />
        </mxCell>
        <mxCell id="4EiAaAuF7udfYV3nGv_q-135" value="" style="rounded=0;whiteSpace=wrap;html=1;" vertex="1" parent="1">
          <mxGeometry x="600" y="1250" width="220" height="510" as="geometry" />
        </mxCell>
        <mxCell id="4EiAaAuF7udfYV3nGv_q-136" value="" style="endArrow=none;html=1;rounded=0;exitX=1;exitY=1;exitDx=0;exitDy=0;entryX=0;entryY=0.25;entryDx=0;entryDy=0;" edge="1" parent="1" source="4EiAaAuF7udfYV3nGv_q-137">
          <mxGeometry width="50" height="50" relative="1" as="geometry">
            <mxPoint x="750" y="1290" as="sourcePoint" />
            <mxPoint x="600" y="1290" as="targetPoint" />
          </mxGeometry>
        </mxCell>
        <mxCell id="4EiAaAuF7udfYV3nGv_q-137" value="Финансовые операции" style="text;strokeColor=none;fillColor=none;fontSize=12;fontStyle=1;verticalAlign=middle;align=center;perimeterSpacing=0;" vertex="1" parent="1">
          <mxGeometry x="600" y="1250" width="220" height="40" as="geometry" />
        </mxCell>
        <mxCell id="4EiAaAuF7udfYV3nGv_q-138" value="&lt;div style=&quot;text-align: left;&quot;&gt;&lt;ul style=&quot;margin: 13.716px 0px; padding-left: 27.432px; color: rgb(64, 64, 64); font-weight: 400; text-wrap-mode: wrap;&quot;&gt;&lt;li style=&quot;&quot;&gt;&lt;p style=&quot;margin-top: 0px; margin-right: 0px; margin-left: 0px; line-height: 28.575px; margin-bottom: 0px !important;&quot; class=&quot;ds-markdown-paragraph&quot;&gt;&lt;span&gt;&lt;font style=&quot;font-size: 20px;&quot; face=&quot;Times New Roman&quot;&gt;operation_id (PK)&lt;/font&gt;&lt;/span&gt;&lt;/p&gt;&lt;/li&gt;&lt;li style=&quot;margin-top: 4px;&quot;&gt;&lt;p style=&quot;margin-top: 0px; margin-right: 0px; margin-left: 0px; line-height: 28.575px; margin-bottom: 0px !important;&quot; class=&quot;ds-markdown-paragraph&quot;&gt;&lt;span&gt;&lt;font style=&quot;font-size: 20px;&quot; face=&quot;Times New Roman&quot;&gt;operation_type (доход, расход)&lt;/font&gt;&lt;/span&gt;&lt;/p&gt;&lt;/li&gt;&lt;li style=&quot;margin-top: 4px;&quot;&gt;&lt;p style=&quot;margin-top: 0px; margin-right: 0px; margin-left: 0px; line-height: 28.575px; margin-bottom: 0px !important;&quot; class=&quot;ds-markdown-paragraph&quot;&gt;&lt;span&gt;&lt;font style=&quot;font-size: 20px;&quot; face=&quot;Times New Roman&quot;&gt;amount&lt;/font&gt;&lt;/span&gt;&lt;/p&gt;&lt;/li&gt;&lt;li style=&quot;margin-top: 4px;&quot;&gt;&lt;p style=&quot;margin-top: 0px; margin-right: 0px; margin-left: 0px; line-height: 28.575px; margin-bottom: 0px !important;&quot; class=&quot;ds-markdown-paragraph&quot;&gt;&lt;span&gt;&lt;font style=&quot;font-size: 20px;&quot; face=&quot;Times New Roman&quot;&gt;date&lt;/font&gt;&lt;/span&gt;&lt;/p&gt;&lt;/li&gt;&lt;li style=&quot;margin-top: 4px;&quot;&gt;&lt;p style=&quot;margin-top: 0px; margin-right: 0px; margin-left: 0px; line-height: 28.575px; margin-bottom: 0px !important;&quot; class=&quot;ds-markdown-paragraph&quot;&gt;&lt;span&gt;&lt;font style=&quot;font-size: 20px;&quot; face=&quot;Times New Roman&quot;&gt;category&lt;/font&gt;&lt;/span&gt;&lt;/p&gt;&lt;/li&gt;&lt;li style=&quot;margin-top: 4px;&quot;&gt;&lt;p style=&quot;margin-top: 0px; margin-right: 0px; margin-left: 0px; line-height: 28.575px; margin-bottom: 0px !important;&quot; class=&quot;ds-markdown-paragraph&quot;&gt;&lt;span&gt;&lt;font style=&quot;font-size: 20px;&quot; face=&quot;Times New Roman&quot;&gt;related_entity_type (заказ, зарплата, налоги и т.д.)&lt;/font&gt;&lt;/span&gt;&lt;/p&gt;&lt;/li&gt;&lt;li style=&quot;margin-top: 4px;&quot;&gt;&lt;p style=&quot;margin-top: 0px; margin-right: 0px; margin-left: 0px; line-height: 28.575px; margin-bottom: 0px !important;&quot; class=&quot;ds-markdown-paragraph&quot;&gt;&lt;span&gt;&lt;font style=&quot;font-size: 20px;&quot; face=&quot;Times New Roman&quot;&gt;related_entity_id&lt;/font&gt;&lt;/span&gt;&lt;/p&gt;&lt;/li&gt;&lt;li style=&quot;margin-top: 4px;&quot;&gt;&lt;p style=&quot;margin-top: 0px; margin-right: 0px; margin-left: 0px; line-height: 28.575px; margin-bottom: 0px !important;&quot; class=&quot;ds-markdown-paragraph&quot;&gt;&lt;span&gt;&lt;font style=&quot;font-size: 20px;&quot; face=&quot;Times New Roman&quot;&gt;description&lt;/font&gt;&lt;/span&gt;&lt;/p&gt;&lt;/li&gt;&lt;li style=&quot;margin-top: 4px;&quot;&gt;&lt;p style=&quot;margin-top: 0px; margin-right: 0px; margin-left: 0px; line-height: 28.575px; margin-bottom: 0px !important;&quot; class=&quot;ds-markdown-paragraph&quot;&gt;&lt;span&gt;&lt;font style=&quot;font-size: 20px;&quot; face=&quot;Times New Roman&quot;&gt;approved_by (FK)&lt;/font&gt;&lt;/span&gt;&lt;/p&gt;&lt;/li&gt;&lt;/ul&gt;&lt;/div&gt;" style="text;strokeColor=none;fillColor=none;html=1;fontSize=24;fontStyle=1;verticalAlign=top;align=center;" vertex="1" parent="1">
          <mxGeometry x="600" y="1290" width="220" height="470" as="geometry" />
        </mxCell>
        <mxCell id="4EiAaAuF7udfYV3nGv_q-140" value="" style="rounded=0;whiteSpace=wrap;html=1;" vertex="1" parent="1">
          <mxGeometry x="886" y="1250" width="220" height="510" as="geometry" />
        </mxCell>
        <mxCell id="4EiAaAuF7udfYV3nGv_q-141" value="" style="endArrow=none;html=1;rounded=0;exitX=1;exitY=1;exitDx=0;exitDy=0;entryX=0;entryY=0.25;entryDx=0;entryDy=0;" edge="1" parent="1" source="4EiAaAuF7udfYV3nGv_q-142">
          <mxGeometry width="50" height="50" relative="1" as="geometry">
            <mxPoint x="1036" y="1290" as="sourcePoint" />
            <mxPoint x="886" y="1290" as="targetPoint" />
          </mxGeometry>
        </mxCell>
        <mxCell id="4EiAaAuF7udfYV3nGv_q-142" value="Налоговые отчисления" style="text;strokeColor=none;fillColor=none;fontSize=12;fontStyle=1;verticalAlign=middle;align=center;perimeterSpacing=0;" vertex="1" parent="1">
          <mxGeometry x="886" y="1250" width="220" height="40" as="geometry" />
        </mxCell>
        <mxCell id="4EiAaAuF7udfYV3nGv_q-143" value="&lt;div style=&quot;text-align: left;&quot;&gt;&lt;ul style=&quot;margin: 13.716px 0px; padding-left: 27.432px; color: rgb(64, 64, 64); font-weight: 400; text-wrap-mode: wrap;&quot;&gt;&lt;li style=&quot;&quot;&gt;&lt;p style=&quot;margin-top: 0px; margin-right: 0px; margin-left: 0px; line-height: 28.575px; margin-bottom: 0px !important;&quot; class=&quot;ds-markdown-paragraph&quot;&gt;&lt;span&gt;&lt;font face=&quot;Times New Roman&quot; style=&quot;font-size: 20px;&quot;&gt;tax_id (PK)&lt;/font&gt;&lt;/span&gt;&lt;/p&gt;&lt;/li&gt;&lt;li style=&quot;margin-top: 4px;&quot;&gt;&lt;p style=&quot;margin-top: 0px; margin-right: 0px; margin-left: 0px; line-height: 28.575px; margin-bottom: 0px !important;&quot; class=&quot;ds-markdown-paragraph&quot;&gt;&lt;span&gt;&lt;font face=&quot;Times New Roman&quot; style=&quot;font-size: 20px;&quot;&gt;tax_type&lt;/font&gt;&lt;/span&gt;&lt;/p&gt;&lt;/li&gt;&lt;li style=&quot;margin-top: 4px;&quot;&gt;&lt;p style=&quot;margin-top: 0px; margin-right: 0px; margin-left: 0px; line-height: 28.575px; margin-bottom: 0px !important;&quot; class=&quot;ds-markdown-paragraph&quot;&gt;&lt;span&gt;&lt;font face=&quot;Times New Roman&quot; style=&quot;font-size: 20px;&quot;&gt;period&lt;/font&gt;&lt;/span&gt;&lt;/p&gt;&lt;/li&gt;&lt;li style=&quot;margin-top: 4px;&quot;&gt;&lt;p style=&quot;margin-top: 0px; margin-right: 0px; margin-left: 0px; line-height: 28.575px; margin-bottom: 0px !important;&quot; class=&quot;ds-markdown-paragraph&quot;&gt;&lt;span&gt;&lt;font face=&quot;Times New Roman&quot; style=&quot;font-size: 20px;&quot;&gt;amount&lt;/font&gt;&lt;/span&gt;&lt;/p&gt;&lt;/li&gt;&lt;li style=&quot;margin-top: 4px;&quot;&gt;&lt;p style=&quot;margin-top: 0px; margin-right: 0px; margin-left: 0px; line-height: 28.575px; margin-bottom: 0px !important;&quot; class=&quot;ds-markdown-paragraph&quot;&gt;&lt;span&gt;&lt;font face=&quot;Times New Roman&quot; style=&quot;font-size: 20px;&quot;&gt;payment_date&lt;/font&gt;&lt;/span&gt;&lt;/p&gt;&lt;/li&gt;&lt;li style=&quot;margin-top: 4px;&quot;&gt;&lt;p style=&quot;margin-top: 0px; margin-right: 0px; margin-left: 0px; line-height: 28.575px; margin-bottom: 0px !important;&quot; class=&quot;ds-markdown-paragraph&quot;&gt;&lt;span&gt;&lt;font face=&quot;Times New Roman&quot; style=&quot;font-size: 20px;&quot;&gt;status&lt;/font&gt;&lt;/span&gt;&lt;/p&gt;&lt;/li&gt;&lt;li style=&quot;margin-top: 4px;&quot;&gt;&lt;p style=&quot;margin-top: 0px; margin-right: 0px; margin-left: 0px; line-height: 28.575px; margin-bottom: 0px !important;&quot; class=&quot;ds-markdown-paragraph&quot;&gt;&lt;span&gt;&lt;font face=&quot;Times New Roman&quot; style=&quot;font-size: 20px;&quot;&gt;description&lt;/font&gt;&lt;/span&gt;&lt;/p&gt;&lt;/li&gt;&lt;li style=&quot;margin-top: 4px;&quot;&gt;&lt;p style=&quot;margin-top: 0px; margin-right: 0px; margin-left: 0px; line-height: 28.575px; margin-bottom: 0px !important;&quot; class=&quot;ds-markdown-paragraph&quot;&gt;&lt;span&gt;&lt;font face=&quot;Times New Roman&quot; style=&quot;font-size: 20px;&quot;&gt;related_document&lt;/font&gt;&lt;/span&gt;&lt;/p&gt;&lt;/li&gt;&lt;/ul&gt;&lt;/div&gt;" style="text;strokeColor=none;fillColor=none;html=1;fontSize=24;fontStyle=1;verticalAlign=top;align=center;" vertex="1" parent="1">
          <mxGeometry x="886" y="1290" width="220" height="470" as="geometry" />
        </mxCell>
        <mxCell id="4EiAaAuF7udfYV3nGv_q-146" value="" style="endArrow=none;html=1;rounded=0;entryX=0;entryY=0.5;entryDx=0;entryDy=0;exitX=1;exitY=0.5;exitDx=0;exitDy=0;" edge="1" parent="1" source="4EiAaAuF7udfYV3nGv_q-69" target="4EiAaAuF7udfYV3nGv_q-74">
          <mxGeometry width="50" height="50" relative="1" as="geometry">
            <mxPoint x="-140" y="-1176" as="sourcePoint" />
            <mxPoint x="-76" y="-1177" as="targetPoint" />
          </mxGeometry>
        </mxCell>
        <mxCell id="4EiAaAuF7udfYV3nGv_q-156" value="1" style="text;strokeColor=none;fillColor=none;html=1;fontSize=24;fontStyle=1;verticalAlign=middle;align=center;" vertex="1" parent="1">
          <mxGeometry x="235" y="-814.5" width="23" height="23" as="geometry" />
        </mxCell>
        <mxCell id="4EiAaAuF7udfYV3nGv_q-157" value="N" style="text;strokeColor=none;fillColor=none;html=1;fontSize=24;fontStyle=1;verticalAlign=middle;align=center;" vertex="1" parent="1">
          <mxGeometry x="197" y="-817" width="21" height="28" as="geometry" />
        </mxCell>
        <mxCell id="4EiAaAuF7udfYV3nGv_q-158" value="1" style="text;strokeColor=none;fillColor=none;html=1;fontSize=24;fontStyle=1;verticalAlign=middle;align=center;" vertex="1" parent="1">
          <mxGeometry x="-99" y="-1176" width="23" height="23" as="geometry" />
        </mxCell>
        <mxCell id="4EiAaAuF7udfYV3nGv_q-159" value="N" style="text;strokeColor=none;fillColor=none;html=1;fontSize=24;fontStyle=1;verticalAlign=middle;align=center;" vertex="1" parent="1">
          <mxGeometry x="-146" y="-1178.5" width="26" height="28" as="geometry" />
        </mxCell>
        <mxCell id="4EiAaAuF7udfYV3nGv_q-160" value="" style="endArrow=none;html=1;rounded=0;entryX=1;entryY=0.5;entryDx=0;entryDy=0;exitX=0;exitY=0.5;exitDx=0;exitDy=0;" edge="1" parent="1" source="4EiAaAuF7udfYV3nGv_q-69" target="4EiAaAuF7udfYV3nGv_q-78">
          <mxGeometry width="50" height="50" relative="1" as="geometry">
            <mxPoint x="-355" y="-1007" as="sourcePoint" />
            <mxPoint x="-425" y="-1007" as="targetPoint" />
          </mxGeometry>
        </mxCell>
        <mxCell id="4EiAaAuF7udfYV3nGv_q-161" value="1" style="text;strokeColor=none;fillColor=none;html=1;fontSize=24;fontStyle=1;verticalAlign=middle;align=center;" vertex="1" parent="1">
          <mxGeometry x="-447" y="-1178" width="23" height="23" as="geometry" />
        </mxCell>
        <mxCell id="4EiAaAuF7udfYV3nGv_q-162" value="1" style="text;strokeColor=none;fillColor=none;html=1;fontSize=24;fontStyle=1;verticalAlign=middle;align=center;" vertex="1" parent="1">
          <mxGeometry x="-389" y="-1178" width="23" height="23" as="geometry" />
        </mxCell>
        <mxCell id="4EiAaAuF7udfYV3nGv_q-163" value="" style="endArrow=none;html=1;rounded=0;" edge="1" parent="1">
          <mxGeometry width="50" height="50" relative="1" as="geometry">
            <mxPoint x="194" y="-762" as="sourcePoint" />
            <mxPoint x="274" y="-762" as="targetPoint" />
          </mxGeometry>
        </mxCell>
        <mxCell id="4EiAaAuF7udfYV3nGv_q-164" value="1" style="text;strokeColor=none;fillColor=none;html=1;fontSize=24;fontStyle=1;verticalAlign=middle;align=center;" vertex="1" parent="1">
          <mxGeometry x="-687" y="-1020" width="23" height="23" as="geometry" />
        </mxCell>
        <mxCell id="4EiAaAuF7udfYV3nGv_q-165" value="N" style="text;strokeColor=none;fillColor=none;html=1;fontSize=24;fontStyle=1;verticalAlign=middle;align=center;" vertex="1" parent="1">
          <mxGeometry x="-1026.5" y="-1025" width="26" height="28" as="geometry" />
        </mxCell>
        <mxCell id="4EiAaAuF7udfYV3nGv_q-166" value="" style="endArrow=none;html=1;rounded=0;exitX=-0.002;exitY=0.83;exitDx=0;exitDy=0;entryX=0.997;entryY=0.641;entryDx=0;entryDy=0;entryPerimeter=0;exitPerimeter=0;" edge="1" parent="1" source="4EiAaAuF7udfYV3nGv_q-78" target="4EiAaAuF7udfYV3nGv_q-90">
          <mxGeometry width="50" height="50" relative="1" as="geometry">
            <mxPoint x="-570" y="-912" as="sourcePoint" />
            <mxPoint x="-490" y="-912" as="targetPoint" />
          </mxGeometry>
        </mxCell>
        <mxCell id="4EiAaAuF7udfYV3nGv_q-167" value="" style="endArrow=none;html=1;rounded=0;exitX=1;exitY=0.25;exitDx=0;exitDy=0;entryX=0;entryY=0.462;entryDx=0;entryDy=0;entryPerimeter=0;" edge="1" parent="1" source="4EiAaAuF7udfYV3nGv_q-90" target="4EiAaAuF7udfYV3nGv_q-122">
          <mxGeometry width="50" height="50" relative="1" as="geometry">
            <mxPoint x="-994" y="-1158" as="sourcePoint" />
            <mxPoint x="-914" y="-1158" as="targetPoint" />
          </mxGeometry>
        </mxCell>
        <mxCell id="4EiAaAuF7udfYV3nGv_q-168" value="1" style="text;strokeColor=none;fillColor=none;html=1;fontSize=24;fontStyle=1;verticalAlign=middle;align=center;" vertex="1" parent="1">
          <mxGeometry x="-967" y="-1259" width="23" height="23" as="geometry" />
        </mxCell>
        <mxCell id="4EiAaAuF7udfYV3nGv_q-169" value="N" style="text;strokeColor=none;fillColor=none;html=1;fontSize=24;fontStyle=1;verticalAlign=middle;align=center;" vertex="1" parent="1">
          <mxGeometry x="-1028" y="-1259" width="26" height="28" as="geometry" />
        </mxCell>
        <mxCell id="4EiAaAuF7udfYV3nGv_q-171" value="" style="endArrow=none;html=1;rounded=0;exitX=0.991;exitY=0.352;exitDx=0;exitDy=0;entryX=0;entryY=0.25;entryDx=0;entryDy=0;exitPerimeter=0;" edge="1" parent="1" source="4EiAaAuF7udfYV3nGv_q-126" target="4EiAaAuF7udfYV3nGv_q-90">
          <mxGeometry width="50" height="50" relative="1" as="geometry">
            <mxPoint x="-1320" y="-1228" as="sourcePoint" />
            <mxPoint x="-1240" y="-1228" as="targetPoint" />
          </mxGeometry>
        </mxCell>
        <mxCell id="4EiAaAuF7udfYV3nGv_q-172" value="1" style="text;strokeColor=none;fillColor=none;html=1;fontSize=24;fontStyle=1;verticalAlign=middle;align=center;" vertex="1" parent="1">
          <mxGeometry x="-1273" y="-1259" width="23" height="23" as="geometry" />
        </mxCell>
        <mxCell id="4EiAaAuF7udfYV3nGv_q-173" value="N" style="text;strokeColor=none;fillColor=none;html=1;fontSize=24;fontStyle=1;verticalAlign=middle;align=center;" vertex="1" parent="1">
          <mxGeometry x="-1325" y="-1261.5" width="26" height="28" as="geometry" />
        </mxCell>
        <mxCell id="4EiAaAuF7udfYV3nGv_q-174" value="" style="endArrow=none;html=1;rounded=0;entryX=0.5;entryY=0;entryDx=0;entryDy=0;exitX=0.5;exitY=1;exitDx=0;exitDy=0;" edge="1" parent="1" source="4EiAaAuF7udfYV3nGv_q-90" target="4EiAaAuF7udfYV3nGv_q-93">
          <mxGeometry width="50" height="50" relative="1" as="geometry">
            <mxPoint x="-1079" y="-927" as="sourcePoint" />
            <mxPoint x="-999" y="-927" as="targetPoint" />
          </mxGeometry>
        </mxCell>
        <mxCell id="4EiAaAuF7udfYV3nGv_q-175" value="1" style="text;strokeColor=none;fillColor=none;html=1;fontSize=24;fontStyle=1;verticalAlign=middle;align=center;" vertex="1" parent="1">
          <mxGeometry x="-1133.5" y="-779" width="23" height="23" as="geometry" />
        </mxCell>
        <mxCell id="4EiAaAuF7udfYV3nGv_q-176" value="N" style="text;strokeColor=none;fillColor=none;html=1;fontSize=24;fontStyle=1;verticalAlign=middle;align=center;" vertex="1" parent="1">
          <mxGeometry x="-1136.5" y="-721" width="26" height="28" as="geometry" />
        </mxCell>
        <mxCell id="4EiAaAuF7udfYV3nGv_q-177" value="" style="endArrow=none;html=1;rounded=0;entryX=0;entryY=0.25;entryDx=0;entryDy=0;exitX=1;exitY=0.25;exitDx=0;exitDy=0;" edge="1" parent="1" source="4EiAaAuF7udfYV3nGv_q-94" target="4EiAaAuF7udfYV3nGv_q-98">
          <mxGeometry width="50" height="50" relative="1" as="geometry">
            <mxPoint x="-1006" y="-514" as="sourcePoint" />
            <mxPoint x="-1006" y="-428" as="targetPoint" />
          </mxGeometry>
        </mxCell>
        <mxCell id="4EiAaAuF7udfYV3nGv_q-178" value="1" style="text;strokeColor=none;fillColor=none;html=1;fontSize=24;fontStyle=1;verticalAlign=middle;align=center;" vertex="1" parent="1">
          <mxGeometry x="-1026.5" y="-560" width="23" height="23" as="geometry" />
        </mxCell>
        <mxCell id="4EiAaAuF7udfYV3nGv_q-179" value="N" style="text;strokeColor=none;fillColor=none;html=1;fontSize=24;fontStyle=1;verticalAlign=middle;align=center;" vertex="1" parent="1">
          <mxGeometry x="-993" y="-562.5" width="26" height="28" as="geometry" />
        </mxCell>
        <mxCell id="4EiAaAuF7udfYV3nGv_q-180" value="" style="endArrow=none;html=1;rounded=0;exitX=0.75;exitY=0;exitDx=0;exitDy=0;entryX=0.25;entryY=1;entryDx=0;entryDy=0;" edge="1" parent="1" source="4EiAaAuF7udfYV3nGv_q-97" target="4EiAaAuF7udfYV3nGv_q-78">
          <mxGeometry width="50" height="50" relative="1" as="geometry">
            <mxPoint x="-893" y="-966" as="sourcePoint" />
            <mxPoint x="-482" y="-862" as="targetPoint" />
            <Array as="points">
              <mxPoint x="-802" y="-862" />
              <mxPoint x="-608" y="-862" />
            </Array>
          </mxGeometry>
        </mxCell>
        <mxCell id="4EiAaAuF7udfYV3nGv_q-181" value="1" style="text;strokeColor=none;fillColor=none;html=1;fontSize=24;fontStyle=1;verticalAlign=middle;align=center;" vertex="1" parent="1">
          <mxGeometry x="-604" y="-914" width="23" height="23" as="geometry" />
        </mxCell>
        <mxCell id="4EiAaAuF7udfYV3nGv_q-182" value="N" style="text;strokeColor=none;fillColor=none;html=1;fontSize=24;fontStyle=1;verticalAlign=middle;align=center;" vertex="1" parent="1">
          <mxGeometry x="-798" y="-723" width="26" height="28" as="geometry" />
        </mxCell>
      </root>
    </mxGraphModel>
  </diagram>
</mxfile>
